<svg width="1600" height="900" viewBox="0 0 1600 900" fill="none" xmlns="http://www.w3.org/2000/svg">
<rect width="1600" height="900" fill="#3A3A3A"/>
<path d="M222.68 341.448C221.784 341.448 221.08 341.192 220.568 340.68C220.056 340.168 219.8 339.421 219.8 338.44V312.328C219.8 311.347 220.056 310.621 220.568 310.152C221.08 309.64 221.784 309.384 222.68 309.384C223.576 309.384 224.259 309.64 224.728 310.152C225.24 310.621 225.496 311.347 225.496 312.328V317.768L224.792 316.616C225.603 314.269 226.904 312.456 228.696 311.176C230.531 309.896 232.707 309.256 235.224 309.256C237.869 309.256 240.003 309.896 241.624 311.176C243.245 312.413 244.333 314.312 244.888 316.872H243.992C244.76 314.525 246.125 312.669 248.088 311.304C250.093 309.939 252.419 309.256 255.064 309.256C257.411 309.256 259.331 309.725 260.824 310.664C262.36 311.56 263.512 312.925 264.28 314.76C265.048 316.552 265.432 318.856 265.432 321.672V338.44C265.432 339.421 265.176 340.168 264.664 340.68C264.152 341.192 263.448 341.448 262.552 341.448C261.613 341.448 260.888 341.192 260.376 340.68C259.864 340.168 259.608 339.421 259.608 338.44V321.928C259.608 319.197 259.139 317.192 258.2 315.912C257.261 314.632 255.683 313.992 253.464 313.992C251.032 313.992 249.091 314.845 247.64 316.552C246.232 318.216 245.528 320.52 245.528 323.464V338.44C245.528 339.421 245.272 340.168 244.76 340.68C244.291 341.192 243.587 341.448 242.648 341.448C241.709 341.448 240.984 341.192 240.472 340.68C239.96 340.168 239.704 339.421 239.704 338.44V321.928C239.704 319.197 239.235 317.192 238.296 315.912C237.357 314.632 235.779 313.992 233.56 313.992C231.128 313.992 229.187 314.845 227.736 316.552C226.328 318.216 225.624 320.52 225.624 323.464V338.44C225.624 340.445 224.643 341.448 222.68 341.448ZM291.117 341.576C288.301 341.576 285.89 340.872 283.885 339.464C281.88 338.056 280.536 336.157 279.853 333.768L280.557 332.808V338.44C280.557 339.421 280.301 340.168 279.789 340.68C279.32 341.192 278.616 341.448 277.677 341.448C276.781 341.448 276.077 341.192 275.565 340.68C275.053 340.168 274.797 339.421 274.797 338.44V298.376C274.797 297.395 275.053 296.669 275.565 296.2C276.077 295.688 276.781 295.432 277.677 295.432C278.616 295.432 279.341 295.688 279.853 296.2C280.365 296.669 280.621 297.395 280.621 298.376V316.872H279.917C280.6 314.568 281.944 312.733 283.949 311.368C285.954 309.96 288.344 309.256 291.117 309.256C293.89 309.256 296.301 309.917 298.349 311.24C300.44 312.52 302.04 314.376 303.149 316.808C304.301 319.197 304.877 322.056 304.877 325.384C304.877 328.669 304.301 331.549 303.149 334.024C301.997 336.456 300.397 338.333 298.349 339.656C296.301 340.936 293.89 341.576 291.117 341.576ZM289.773 336.968C291.608 336.968 293.208 336.52 294.573 335.624C295.981 334.728 297.069 333.427 297.837 331.72C298.605 330.013 298.989 327.901 298.989 325.384C298.989 321.629 298.157 318.771 296.493 316.808C294.829 314.845 292.589 313.864 289.773 313.864C287.896 313.864 286.253 314.312 284.845 315.208C283.48 316.061 282.413 317.341 281.645 319.048C280.92 320.755 280.557 322.867 280.557 325.384C280.557 329.139 281.389 332.019 283.053 334.024C284.717 335.987 286.957 336.968 289.773 336.968ZM341.975 341.576C339.458 341.576 337.346 341.128 335.639 340.232C333.975 339.336 332.716 338.035 331.863 336.328C331.052 334.621 330.647 332.531 330.647 330.056V314.312H326.551C325.783 314.312 325.186 314.12 324.759 313.736C324.332 313.309 324.119 312.755 324.119 312.072C324.119 311.347 324.332 310.792 324.759 310.408C325.186 310.024 325.783 309.832 326.551 309.832H330.647V302.856C330.647 301.875 330.903 301.149 331.415 300.68C331.927 300.168 332.652 299.912 333.591 299.912C334.53 299.912 335.234 300.168 335.703 300.68C336.215 301.149 336.471 301.875 336.471 302.856V309.832H344.215C345.026 309.832 345.644 310.024 346.071 310.408C346.498 310.792 346.711 311.347 346.711 312.072C346.711 312.755 346.498 313.309 346.071 313.736C345.644 314.12 345.026 314.312 344.215 314.312H336.471V329.544C336.471 331.891 336.962 333.661 337.943 334.856C338.924 336.051 340.546 336.648 342.807 336.648C343.618 336.648 344.3 336.584 344.855 336.456C345.41 336.285 345.9 336.2 346.327 336.2C346.711 336.157 347.031 336.285 347.287 336.584C347.586 336.883 347.735 337.437 347.735 338.248C347.735 338.845 347.628 339.4 347.415 339.912C347.244 340.381 346.882 340.701 346.327 340.872C345.815 341.043 345.132 341.192 344.279 341.32C343.426 341.491 342.658 341.576 341.975 341.576ZM355.365 341.448C354.469 341.448 353.765 341.192 353.253 340.68C352.741 340.168 352.485 339.421 352.485 338.44V298.376C352.485 297.395 352.741 296.669 353.253 296.2C353.765 295.688 354.469 295.432 355.365 295.432C356.303 295.432 357.029 295.688 357.541 296.2C358.053 296.669 358.309 297.395 358.309 298.376V316.616H357.477C358.373 314.184 359.823 312.349 361.829 311.112C363.877 309.875 366.202 309.256 368.805 309.256C371.322 309.256 373.391 309.725 375.013 310.664C376.634 311.56 377.85 312.925 378.661 314.76C379.471 316.595 379.877 318.899 379.877 321.672V338.44C379.877 339.421 379.621 340.168 379.109 340.68C378.639 341.192 377.935 341.448 376.997 341.448C376.058 341.448 375.333 341.192 374.821 340.68C374.309 340.168 374.053 339.421 374.053 338.44V321.992C374.053 319.219 373.519 317.192 372.453 315.912C371.386 314.632 369.679 313.992 367.333 313.992C364.602 313.992 362.405 314.845 360.741 316.552C359.119 318.216 358.309 320.477 358.309 323.336V338.44C358.309 340.445 357.327 341.448 355.365 341.448ZM391.99 341.32C391.094 341.32 390.39 341.043 389.878 340.488C389.366 339.933 389.11 339.165 389.11 338.184V312.648C389.11 311.624 389.366 310.856 389.878 310.344C390.39 309.789 391.094 309.512 391.99 309.512C392.928 309.512 393.654 309.789 394.166 310.344C394.678 310.856 394.934 311.624 394.934 312.648V338.184C394.934 339.165 394.678 339.933 394.166 340.488C393.696 341.043 392.971 341.32 391.99 341.32ZM391.99 302.6C390.838 302.6 389.92 302.301 389.238 301.704C388.598 301.064 388.278 300.232 388.278 299.208C388.278 298.099 388.598 297.267 389.238 296.712C389.92 296.115 390.838 295.816 391.99 295.816C393.227 295.816 394.144 296.115 394.742 296.712C395.382 297.267 395.702 298.099 395.702 299.208C395.702 300.232 395.382 301.064 394.742 301.704C394.144 302.301 393.227 302.6 391.99 302.6ZM415.049 341.576C413.129 341.576 411.188 341.363 409.225 340.936C407.305 340.467 405.492 339.677 403.785 338.568C403.316 338.269 402.974 337.907 402.761 337.48C402.59 337.011 402.526 336.563 402.569 336.136C402.654 335.667 402.846 335.261 403.145 334.92C403.444 334.579 403.806 334.387 404.233 334.344C404.702 334.259 405.193 334.365 405.705 334.664C407.369 335.603 408.969 336.264 410.505 336.648C412.084 337.032 413.641 337.224 415.177 337.224C417.524 337.224 419.294 336.797 420.489 335.944C421.684 335.091 422.281 333.96 422.281 332.552C422.281 331.357 421.876 330.44 421.065 329.8C420.297 329.117 419.081 328.605 417.417 328.264L411.465 327.048C408.82 326.451 406.814 325.469 405.449 324.104C404.126 322.696 403.465 320.904 403.465 318.728C403.465 316.808 403.977 315.144 405.001 313.736C406.068 312.285 407.54 311.176 409.417 310.408C411.294 309.64 413.449 309.256 415.881 309.256C417.758 309.256 419.529 309.512 421.193 310.024C422.9 310.493 424.436 311.219 425.801 312.2C426.313 312.499 426.633 312.883 426.761 313.352C426.932 313.779 426.953 314.227 426.825 314.696C426.74 315.123 426.548 315.485 426.249 315.784C425.95 316.083 425.566 316.275 425.097 316.36C424.628 316.403 424.116 316.275 423.561 315.976C422.324 315.123 421.044 314.525 419.721 314.184C418.441 313.8 417.161 313.608 415.881 313.608C413.577 313.608 411.828 314.056 410.633 314.952C409.481 315.848 408.905 317.021 408.905 318.472C408.905 319.581 409.246 320.499 409.929 321.224C410.654 321.949 411.785 322.483 413.321 322.824L419.273 324.04C422.046 324.637 424.137 325.597 425.545 326.92C426.953 328.2 427.657 329.949 427.657 332.168C427.657 335.069 426.505 337.373 424.201 339.08C421.94 340.744 418.889 341.576 415.049 341.576ZM462.994 341.448C462.183 341.448 461.479 341.256 460.882 340.872C460.285 340.445 459.815 339.763 459.474 338.824L449.938 313.416C449.639 312.605 449.554 311.901 449.682 311.304C449.81 310.707 450.109 310.237 450.578 309.896C451.047 309.555 451.666 309.384 452.434 309.384C453.159 309.384 453.735 309.555 454.162 309.896C454.589 310.237 454.951 310.856 455.25 311.752L463.954 336.328H462.418L471.378 311.624C471.677 310.856 472.061 310.301 472.53 309.96C473.042 309.576 473.661 309.384 474.386 309.384C475.154 309.384 475.794 309.576 476.306 309.96C476.818 310.301 477.181 310.856 477.394 311.624L486.226 336.328H484.754L493.586 311.624C493.885 310.771 494.269 310.195 494.738 309.896C495.207 309.555 495.783 309.384 496.466 309.384C497.234 309.384 497.81 309.576 498.194 309.96C498.578 310.344 498.791 310.856 498.834 311.496C498.919 312.093 498.834 312.733 498.578 313.416L489.042 338.824C488.743 339.72 488.274 340.381 487.634 340.808C487.037 341.235 486.333 341.448 485.522 341.448C484.711 341.448 483.986 341.235 483.346 340.808C482.749 340.381 482.279 339.72 481.938 338.824L472.786 313.736H475.73L466.578 338.824C466.237 339.72 465.767 340.381 465.17 340.808C464.573 341.235 463.847 341.448 462.994 341.448ZM519.822 341.576C516.451 341.576 513.55 340.936 511.118 339.656C508.729 338.333 506.873 336.477 505.55 334.088C504.227 331.656 503.566 328.797 503.566 325.512C503.566 322.269 504.206 319.432 505.486 317C506.809 314.568 508.601 312.669 510.862 311.304C513.166 309.939 515.79 309.256 518.734 309.256C520.825 309.256 522.702 309.619 524.366 310.344C526.073 311.027 527.523 312.029 528.718 313.352C529.913 314.675 530.809 316.296 531.406 318.216C532.046 320.093 532.366 322.227 532.366 324.616C532.366 325.299 532.153 325.832 531.726 326.216C531.342 326.557 530.766 326.728 529.998 326.728H508.11V323.016H528.526L527.438 323.912C527.438 321.693 527.097 319.816 526.414 318.28C525.774 316.701 524.814 315.507 523.534 314.696C522.297 313.885 520.739 313.48 518.862 313.48C516.814 313.48 515.065 313.971 513.614 314.952C512.163 315.891 511.054 317.235 510.286 318.984C509.518 320.691 509.134 322.675 509.134 324.936V325.32C509.134 329.16 510.051 332.061 511.886 334.024C513.721 335.987 516.366 336.968 519.822 336.968C521.187 336.968 522.574 336.797 523.982 336.456C525.433 336.115 526.819 335.496 528.142 334.6C528.782 334.216 529.358 334.045 529.87 334.088C530.425 334.088 530.873 334.259 531.214 334.6C531.555 334.899 531.769 335.283 531.854 335.752C531.939 336.179 531.875 336.648 531.662 337.16C531.449 337.672 531.043 338.12 530.446 338.504C529.038 339.485 527.353 340.253 525.39 340.808C523.47 341.32 521.614 341.576 519.822 341.576ZM555.93 341.576C553.114 341.576 550.703 340.872 548.698 339.464C546.692 338.056 545.348 336.157 544.666 333.768L545.37 332.808V338.44C545.37 339.421 545.114 340.168 544.602 340.68C544.132 341.192 543.428 341.448 542.49 341.448C541.594 341.448 540.89 341.192 540.378 340.68C539.866 340.168 539.61 339.421 539.61 338.44V298.376C539.61 297.395 539.866 296.669 540.378 296.2C540.89 295.688 541.594 295.432 542.49 295.432C543.428 295.432 544.154 295.688 544.666 296.2C545.178 296.669 545.434 297.395 545.434 298.376V316.872H544.73C545.412 314.568 546.756 312.733 548.762 311.368C550.767 309.96 553.156 309.256 555.93 309.256C558.703 309.256 561.114 309.917 563.162 311.24C565.252 312.52 566.852 314.376 567.962 316.808C569.114 319.197 569.69 322.056 569.69 325.384C569.69 328.669 569.114 331.549 567.962 334.024C566.81 336.456 565.21 338.333 563.162 339.656C561.114 340.936 558.703 341.576 555.93 341.576ZM554.586 336.968C556.42 336.968 558.02 336.52 559.386 335.624C560.794 334.728 561.882 333.427 562.65 331.72C563.418 330.013 563.802 327.901 563.802 325.384C563.802 321.629 562.97 318.771 561.306 316.808C559.642 314.845 557.402 313.864 554.586 313.864C552.708 313.864 551.066 314.312 549.658 315.208C548.292 316.061 547.226 317.341 546.458 319.048C545.732 320.755 545.37 322.867 545.37 325.384C545.37 329.139 546.202 332.019 547.866 334.024C549.53 335.987 551.77 336.968 554.586 336.968ZM587.924 341.576C586.004 341.576 584.063 341.363 582.1 340.936C580.18 340.467 578.367 339.677 576.66 338.568C576.191 338.269 575.849 337.907 575.636 337.48C575.465 337.011 575.401 336.563 575.444 336.136C575.529 335.667 575.721 335.261 576.02 334.92C576.319 334.579 576.681 334.387 577.108 334.344C577.577 334.259 578.068 334.365 578.58 334.664C580.244 335.603 581.844 336.264 583.38 336.648C584.959 337.032 586.516 337.224 588.052 337.224C590.399 337.224 592.169 336.797 593.364 335.944C594.559 335.091 595.156 333.96 595.156 332.552C595.156 331.357 594.751 330.44 593.94 329.8C593.172 329.117 591.956 328.605 590.292 328.264L584.34 327.048C581.695 326.451 579.689 325.469 578.324 324.104C577.001 322.696 576.34 320.904 576.34 318.728C576.34 316.808 576.852 315.144 577.876 313.736C578.943 312.285 580.415 311.176 582.292 310.408C584.169 309.64 586.324 309.256 588.756 309.256C590.633 309.256 592.404 309.512 594.068 310.024C595.775 310.493 597.311 311.219 598.676 312.2C599.188 312.499 599.508 312.883 599.636 313.352C599.807 313.779 599.828 314.227 599.7 314.696C599.615 315.123 599.423 315.485 599.124 315.784C598.825 316.083 598.441 316.275 597.972 316.36C597.503 316.403 596.991 316.275 596.436 315.976C595.199 315.123 593.919 314.525 592.596 314.184C591.316 313.8 590.036 313.608 588.756 313.608C586.452 313.608 584.703 314.056 583.508 314.952C582.356 315.848 581.78 317.021 581.78 318.472C581.78 319.581 582.121 320.499 582.804 321.224C583.529 321.949 584.66 322.483 586.196 322.824L592.148 324.04C594.921 324.637 597.012 325.597 598.42 326.92C599.828 328.2 600.532 329.949 600.532 332.168C600.532 335.069 599.38 337.373 597.076 339.08C594.815 340.744 591.764 341.576 587.924 341.576ZM610.99 341.32C610.094 341.32 609.39 341.043 608.878 340.488C608.366 339.933 608.11 339.165 608.11 338.184V312.648C608.11 311.624 608.366 310.856 608.878 310.344C609.39 309.789 610.094 309.512 610.99 309.512C611.928 309.512 612.654 309.789 613.166 310.344C613.678 310.856 613.934 311.624 613.934 312.648V338.184C613.934 339.165 613.678 339.933 613.166 340.488C612.696 341.043 611.971 341.32 610.99 341.32ZM610.99 302.6C609.838 302.6 608.92 302.301 608.238 301.704C607.598 301.064 607.278 300.232 607.278 299.208C607.278 298.099 607.598 297.267 608.238 296.712C608.92 296.115 609.838 295.816 610.99 295.816C612.227 295.816 613.144 296.115 613.742 296.712C614.382 297.267 614.702 298.099 614.702 299.208C614.702 300.232 614.382 301.064 613.742 301.704C613.144 302.301 612.227 302.6 610.99 302.6ZM636.225 341.576C633.708 341.576 631.596 341.128 629.889 340.232C628.225 339.336 626.966 338.035 626.113 336.328C625.302 334.621 624.897 332.531 624.897 330.056V314.312H620.801C620.033 314.312 619.436 314.12 619.009 313.736C618.582 313.309 618.369 312.755 618.369 312.072C618.369 311.347 618.582 310.792 619.009 310.408C619.436 310.024 620.033 309.832 620.801 309.832H624.897V302.856C624.897 301.875 625.153 301.149 625.665 300.68C626.177 300.168 626.902 299.912 627.841 299.912C628.78 299.912 629.484 300.168 629.953 300.68C630.465 301.149 630.721 301.875 630.721 302.856V309.832H638.465C639.276 309.832 639.894 310.024 640.321 310.408C640.748 310.792 640.961 311.347 640.961 312.072C640.961 312.755 640.748 313.309 640.321 313.736C639.894 314.12 639.276 314.312 638.465 314.312H630.721V329.544C630.721 331.891 631.212 333.661 632.193 334.856C633.174 336.051 634.796 336.648 637.057 336.648C637.868 336.648 638.55 336.584 639.105 336.456C639.66 336.285 640.15 336.2 640.577 336.2C640.961 336.157 641.281 336.285 641.537 336.584C641.836 336.883 641.985 337.437 641.985 338.248C641.985 338.845 641.878 339.4 641.665 339.912C641.494 340.381 641.132 340.701 640.577 340.872C640.065 341.043 639.382 341.192 638.529 341.32C637.676 341.491 636.908 341.576 636.225 341.576ZM660.322 341.576C656.951 341.576 654.05 340.936 651.618 339.656C649.229 338.333 647.373 336.477 646.05 334.088C644.727 331.656 644.066 328.797 644.066 325.512C644.066 322.269 644.706 319.432 645.986 317C647.309 314.568 649.101 312.669 651.362 311.304C653.666 309.939 656.29 309.256 659.234 309.256C661.325 309.256 663.202 309.619 664.866 310.344C666.573 311.027 668.023 312.029 669.218 313.352C670.413 314.675 671.309 316.296 671.906 318.216C672.546 320.093 672.866 322.227 672.866 324.616C672.866 325.299 672.653 325.832 672.226 326.216C671.842 326.557 671.266 326.728 670.498 326.728H648.61V323.016H669.026L667.938 323.912C667.938 321.693 667.597 319.816 666.914 318.28C666.274 316.701 665.314 315.507 664.034 314.696C662.797 313.885 661.239 313.48 659.362 313.48C657.314 313.48 655.565 313.971 654.114 314.952C652.663 315.891 651.554 317.235 650.786 318.984C650.018 320.691 649.634 322.675 649.634 324.936V325.32C649.634 329.16 650.551 332.061 652.386 334.024C654.221 335.987 656.866 336.968 660.322 336.968C661.687 336.968 663.074 336.797 664.482 336.456C665.933 336.115 667.319 335.496 668.642 334.6C669.282 334.216 669.858 334.045 670.37 334.088C670.925 334.088 671.373 334.259 671.714 334.6C672.055 334.899 672.269 335.283 672.354 335.752C672.439 336.179 672.375 336.648 672.162 337.16C671.949 337.672 671.543 338.12 670.946 338.504C669.538 339.485 667.853 340.253 665.89 340.808C663.97 341.32 662.114 341.576 660.322 341.576ZM699.677 341.32C698.781 341.32 698.077 341.043 697.565 340.488C697.053 339.933 696.797 339.165 696.797 338.184V312.648C696.797 311.624 697.053 310.856 697.565 310.344C698.077 309.789 698.781 309.512 699.677 309.512C700.616 309.512 701.341 309.789 701.853 310.344C702.365 310.856 702.621 311.624 702.621 312.648V338.184C702.621 339.165 702.365 339.933 701.853 340.488C701.384 341.043 700.658 341.32 699.677 341.32ZM699.677 302.6C698.525 302.6 697.608 302.301 696.925 301.704C696.285 301.064 695.965 300.232 695.965 299.208C695.965 298.099 696.285 297.267 696.925 296.712C697.608 296.115 698.525 295.816 699.677 295.816C700.914 295.816 701.832 296.115 702.429 296.712C703.069 297.267 703.389 298.099 703.389 299.208C703.389 300.232 703.069 301.064 702.429 301.704C701.832 302.301 700.914 302.6 699.677 302.6ZM722.737 341.576C720.817 341.576 718.875 341.363 716.913 340.936C714.993 340.467 713.179 339.677 711.473 338.568C711.003 338.269 710.662 337.907 710.449 337.48C710.278 337.011 710.214 336.563 710.257 336.136C710.342 335.667 710.534 335.261 710.833 334.92C711.131 334.579 711.494 334.387 711.921 334.344C712.39 334.259 712.881 334.365 713.393 334.664C715.057 335.603 716.657 336.264 718.193 336.648C719.771 337.032 721.329 337.224 722.865 337.224C725.211 337.224 726.982 336.797 728.177 335.944C729.371 335.091 729.969 333.96 729.969 332.552C729.969 331.357 729.563 330.44 728.753 329.8C727.985 329.117 726.769 328.605 725.105 328.264L719.153 327.048C716.507 326.451 714.502 325.469 713.137 324.104C711.814 322.696 711.153 320.904 711.153 318.728C711.153 316.808 711.665 315.144 712.689 313.736C713.755 312.285 715.227 311.176 717.105 310.408C718.982 309.64 721.137 309.256 723.569 309.256C725.446 309.256 727.217 309.512 728.881 310.024C730.587 310.493 732.123 311.219 733.489 312.2C734.001 312.499 734.321 312.883 734.449 313.352C734.619 313.779 734.641 314.227 734.513 314.696C734.427 315.123 734.235 315.485 733.937 315.784C733.638 316.083 733.254 316.275 732.785 316.36C732.315 316.403 731.803 316.275 731.249 315.976C730.011 315.123 728.731 314.525 727.409 314.184C726.129 313.8 724.849 313.608 723.569 313.608C721.265 313.608 719.515 314.056 718.321 314.952C717.169 315.848 716.593 317.021 716.593 318.472C716.593 319.581 716.934 320.499 717.617 321.224C718.342 321.949 719.473 322.483 721.009 322.824L726.961 324.04C729.734 324.637 731.825 325.597 733.233 326.92C734.641 328.2 735.345 329.949 735.345 332.168C735.345 335.069 734.193 337.373 731.889 339.08C729.627 340.744 726.577 341.576 722.737 341.576ZM745.738 341.256C744.629 341.256 743.711 340.893 742.986 340.168C742.261 339.443 741.898 338.525 741.898 337.416C741.898 336.307 742.261 335.411 742.986 334.728C743.711 334.045 744.629 333.704 745.738 333.704C746.933 333.704 747.85 334.045 748.49 334.728C749.173 335.411 749.514 336.307 749.514 337.416C749.514 338.525 749.173 339.443 748.49 340.168C747.85 340.893 746.933 341.256 745.738 341.256ZM745.738 317.128C744.629 317.128 743.711 316.787 742.986 316.104C742.261 315.379 741.898 314.461 741.898 313.352C741.898 312.243 742.261 311.347 742.986 310.664C743.711 309.939 744.629 309.576 745.738 309.576C746.933 309.576 747.85 309.939 748.49 310.664C749.173 311.347 749.514 312.243 749.514 313.352C749.514 314.461 749.173 315.379 748.49 316.104C747.85 316.787 746.933 317.128 745.738 317.128ZM262.987 422.368C260.896 422.368 258.976 421.877 257.227 420.896C255.477 419.872 254.069 418.507 253.003 416.8C251.936 415.093 251.403 413.173 251.403 411.04C251.403 409.077 251.893 407.243 252.875 405.536C253.899 403.787 255.285 402.379 257.035 401.312C258.784 400.203 260.768 399.648 262.987 399.648C265.035 399.648 266.933 400.139 268.683 401.12C270.475 402.101 271.904 403.467 272.971 405.216C274.037 406.923 274.571 408.864 274.571 411.04C274.571 413.131 274.037 415.029 272.971 416.736C271.947 418.443 270.56 419.808 268.811 420.832C267.061 421.856 265.12 422.368 262.987 422.368ZM326.424 428.576C324.504 428.576 322.563 428.363 320.6 427.936C318.68 427.467 316.867 426.677 315.16 425.568C314.691 425.269 314.349 424.907 314.136 424.48C313.965 424.011 313.901 423.563 313.944 423.136C314.029 422.667 314.221 422.261 314.52 421.92C314.819 421.579 315.181 421.387 315.608 421.344C316.077 421.259 316.568 421.365 317.08 421.664C318.744 422.603 320.344 423.264 321.88 423.648C323.459 424.032 325.016 424.224 326.552 424.224C328.899 424.224 330.669 423.797 331.864 422.944C333.059 422.091 333.656 420.96 333.656 419.552C333.656 418.357 333.251 417.44 332.44 416.8C331.672 416.117 330.456 415.605 328.792 415.264L322.84 414.048C320.195 413.451 318.189 412.469 316.824 411.104C315.501 409.696 314.84 407.904 314.84 405.728C314.84 403.808 315.352 402.144 316.376 400.736C317.443 399.285 318.915 398.176 320.792 397.408C322.669 396.64 324.824 396.256 327.256 396.256C329.133 396.256 330.904 396.512 332.568 397.024C334.275 397.493 335.811 398.219 337.176 399.2C337.688 399.499 338.008 399.883 338.136 400.352C338.307 400.779 338.328 401.227 338.2 401.696C338.115 402.123 337.923 402.485 337.624 402.784C337.325 403.083 336.941 403.275 336.472 403.36C336.003 403.403 335.491 403.275 334.936 402.976C333.699 402.123 332.419 401.525 331.096 401.184C329.816 400.8 328.536 400.608 327.256 400.608C324.952 400.608 323.203 401.056 322.008 401.952C320.856 402.848 320.28 404.021 320.28 405.472C320.28 406.581 320.621 407.499 321.304 408.224C322.029 408.949 323.16 409.483 324.696 409.824L330.648 411.04C333.421 411.637 335.512 412.597 336.92 413.92C338.328 415.2 339.032 416.949 339.032 419.168C339.032 422.069 337.88 424.373 335.576 426.08C333.315 427.744 330.264 428.576 326.424 428.576ZM359.225 428.576C356.708 428.576 354.596 428.128 352.889 427.232C351.225 426.336 349.966 425.035 349.113 423.328C348.302 421.621 347.897 419.531 347.897 417.056V401.312H343.801C343.033 401.312 342.436 401.12 342.009 400.736C341.582 400.309 341.369 399.755 341.369 399.072C341.369 398.347 341.582 397.792 342.009 397.408C342.436 397.024 343.033 396.832 343.801 396.832H347.897V389.856C347.897 388.875 348.153 388.149 348.665 387.68C349.177 387.168 349.902 386.912 350.841 386.912C351.78 386.912 352.484 387.168 352.953 387.68C353.465 388.149 353.721 388.875 353.721 389.856V396.832H361.465C362.276 396.832 362.894 397.024 363.321 397.408C363.748 397.792 363.961 398.347 363.961 399.072C363.961 399.755 363.748 400.309 363.321 400.736C362.894 401.12 362.276 401.312 361.465 401.312H353.721V416.544C353.721 418.891 354.212 420.661 355.193 421.856C356.174 423.051 357.796 423.648 360.057 423.648C360.868 423.648 361.55 423.584 362.105 423.456C362.66 423.285 363.15 423.2 363.577 423.2C363.961 423.157 364.281 423.285 364.537 423.584C364.836 423.883 364.985 424.437 364.985 425.248C364.985 425.845 364.878 426.4 364.665 426.912C364.494 427.381 364.132 427.701 363.577 427.872C363.065 428.043 362.382 428.192 361.529 428.32C360.676 428.491 359.908 428.576 359.225 428.576ZM372.615 428.32C371.719 428.32 371.015 428.043 370.503 427.488C369.991 426.933 369.735 426.165 369.735 425.184V399.648C369.735 398.624 369.991 397.856 370.503 397.344C371.015 396.789 371.719 396.512 372.615 396.512C373.553 396.512 374.279 396.789 374.791 397.344C375.303 397.856 375.559 398.624 375.559 399.648V425.184C375.559 426.165 375.303 426.933 374.791 427.488C374.321 428.043 373.596 428.32 372.615 428.32ZM372.615 389.6C371.463 389.6 370.545 389.301 369.863 388.704C369.223 388.064 368.903 387.232 368.903 386.208C368.903 385.099 369.223 384.267 369.863 383.712C370.545 383.115 371.463 382.816 372.615 382.816C373.852 382.816 374.769 383.115 375.367 383.712C376.007 384.267 376.327 385.099 376.327 386.208C376.327 387.232 376.007 388.064 375.367 388.704C374.769 389.301 373.852 389.6 372.615 389.6ZM394.714 428.576C391.514 428.576 389.082 427.637 387.418 425.76C385.754 423.84 384.922 421.088 384.922 417.504V385.376C384.922 384.395 385.178 383.669 385.69 383.2C386.202 382.688 386.906 382.432 387.802 382.432C388.741 382.432 389.466 382.688 389.978 383.2C390.49 383.669 390.746 384.395 390.746 385.376V417.056C390.746 419.275 391.194 420.939 392.09 422.048C393.029 423.115 394.351 423.648 396.058 423.648C396.442 423.648 396.783 423.648 397.082 423.648C397.381 423.605 397.679 423.563 397.978 423.52C398.447 423.477 398.789 423.605 399.002 423.904C399.215 424.203 399.322 424.8 399.322 425.696C399.322 426.507 399.13 427.147 398.746 427.616C398.405 428.043 397.829 428.32 397.018 428.448C396.634 428.491 396.25 428.512 395.866 428.512C395.482 428.555 395.098 428.576 394.714 428.576ZM413.964 428.576C410.764 428.576 408.332 427.637 406.668 425.76C405.004 423.84 404.172 421.088 404.172 417.504V385.376C404.172 384.395 404.428 383.669 404.94 383.2C405.452 382.688 406.156 382.432 407.052 382.432C407.991 382.432 408.716 382.688 409.228 383.2C409.74 383.669 409.996 384.395 409.996 385.376V417.056C409.996 419.275 410.444 420.939 411.34 422.048C412.279 423.115 413.601 423.648 415.308 423.648C415.692 423.648 416.033 423.648 416.332 423.648C416.631 423.605 416.929 423.563 417.228 423.52C417.697 423.477 418.039 423.605 418.252 423.904C418.465 424.203 418.572 424.8 418.572 425.696C418.572 426.507 418.38 427.147 417.996 427.616C417.655 428.043 417.079 428.32 416.268 428.448C415.884 428.491 415.5 428.512 415.116 428.512C414.732 428.555 414.348 428.576 413.964 428.576ZM449.902 428.576C446.702 428.576 444.27 427.637 442.606 425.76C440.942 423.84 440.11 421.088 440.11 417.504V385.376C440.11 384.395 440.366 383.669 440.878 383.2C441.39 382.688 442.094 382.432 442.99 382.432C443.928 382.432 444.654 382.688 445.166 383.2C445.678 383.669 445.934 384.395 445.934 385.376V417.056C445.934 419.275 446.382 420.939 447.278 422.048C448.216 423.115 449.539 423.648 451.246 423.648C451.63 423.648 451.971 423.648 452.27 423.648C452.568 423.605 452.867 423.563 453.166 423.52C453.635 423.477 453.976 423.605 454.19 423.904C454.403 424.203 454.51 424.8 454.51 425.696C454.51 426.507 454.318 427.147 453.934 427.616C453.592 428.043 453.016 428.32 452.206 428.448C451.822 428.491 451.438 428.512 451.054 428.512C450.67 428.555 450.286 428.576 449.902 428.576ZM472.295 428.576C469.223 428.576 466.556 427.915 464.295 426.592C462.034 425.269 460.284 423.392 459.047 420.96C457.81 418.528 457.191 415.669 457.191 412.384C457.191 409.909 457.532 407.691 458.215 405.728C458.94 403.723 459.964 402.016 461.287 400.608C462.61 399.2 464.188 398.133 466.023 397.408C467.9 396.64 469.991 396.256 472.295 396.256C475.367 396.256 478.034 396.917 480.295 398.24C482.556 399.563 484.306 401.44 485.543 403.872C486.78 406.261 487.399 409.099 487.399 412.384C487.399 414.859 487.036 417.099 486.311 419.104C485.628 421.109 484.626 422.816 483.303 424.224C481.98 425.632 480.38 426.72 478.503 427.488C476.668 428.213 474.599 428.576 472.295 428.576ZM472.295 423.968C474.172 423.968 475.794 423.52 477.159 422.624C478.567 421.728 479.634 420.427 480.359 418.72C481.127 417.013 481.511 414.901 481.511 412.384C481.511 408.629 480.679 405.771 479.015 403.808C477.351 401.845 475.111 400.864 472.295 400.864C470.46 400.864 468.839 401.312 467.431 402.208C466.066 403.061 464.999 404.341 464.231 406.048C463.463 407.755 463.079 409.867 463.079 412.384C463.079 416.139 463.911 419.019 465.575 421.024C467.282 422.987 469.522 423.968 472.295 423.968ZM504.78 428.576C502.646 428.576 500.705 428.149 498.956 427.296C497.249 426.443 495.905 425.291 494.924 423.84C493.985 422.389 493.516 420.768 493.516 418.976C493.516 416.672 494.092 414.859 495.244 413.536C496.396 412.213 498.337 411.275 501.068 410.72C503.798 410.123 507.468 409.824 512.076 409.824H515.084V413.536H512.204C508.918 413.536 506.316 413.685 504.396 413.984C502.518 414.283 501.196 414.816 500.428 415.584C499.66 416.309 499.276 417.333 499.276 418.656C499.276 420.32 499.852 421.685 501.004 422.752C502.198 423.819 503.82 424.352 505.868 424.352C507.489 424.352 508.918 423.968 510.156 423.2C511.393 422.389 512.374 421.323 513.1 420C513.825 418.635 514.188 417.077 514.188 415.328V407.968C514.188 405.451 513.676 403.637 512.652 402.528C511.628 401.376 509.9 400.8 507.468 400.8C506.06 400.8 504.609 400.992 503.116 401.376C501.622 401.76 500.065 402.357 498.444 403.168C497.804 403.467 497.249 403.573 496.78 403.488C496.31 403.36 495.926 403.104 495.628 402.72C495.372 402.293 495.222 401.845 495.18 401.376C495.18 400.864 495.286 400.373 495.5 399.904C495.756 399.435 496.182 399.093 496.78 398.88C498.657 397.941 500.513 397.28 502.348 396.896C504.225 396.469 505.974 396.256 507.596 396.256C510.369 396.256 512.652 396.704 514.444 397.6C516.236 398.453 517.58 399.797 518.476 401.632C519.372 403.424 519.82 405.728 519.82 408.544V425.44C519.82 426.421 519.585 427.168 519.116 427.68C518.646 428.192 517.964 428.448 517.068 428.448C516.214 428.448 515.532 428.192 515.02 427.68C514.55 427.168 514.316 426.421 514.316 425.44V420.896H514.892C514.55 422.475 513.91 423.84 512.972 424.992C512.033 426.144 510.86 427.04 509.452 427.68C508.086 428.277 506.529 428.576 504.78 428.576ZM540.889 428.576C538.158 428.576 535.747 427.936 533.657 426.656C531.609 425.333 530.009 423.456 528.857 421.024C527.705 418.549 527.129 415.669 527.129 412.384C527.129 409.056 527.683 406.197 528.793 403.808C529.945 401.376 531.545 399.52 533.593 398.24C535.683 396.917 538.115 396.256 540.889 396.256C543.662 396.256 546.051 396.96 548.057 398.368C550.062 399.733 551.406 401.568 552.089 403.872H551.385V385.376C551.385 384.395 551.619 383.669 552.089 383.2C552.601 382.688 553.326 382.432 554.265 382.432C555.203 382.432 555.929 382.688 556.441 383.2C556.953 383.669 557.208 384.395 557.208 385.376V425.44C557.208 426.421 556.953 427.168 556.441 427.68C555.929 428.192 555.203 428.448 554.265 428.448C553.369 428.448 552.665 428.192 552.153 427.68C551.641 427.168 551.385 426.421 551.385 425.44V419.616L552.089 420.768C551.449 423.157 550.105 425.056 548.057 426.464C546.051 427.872 543.662 428.576 540.889 428.576ZM542.233 423.968C544.11 423.968 545.731 423.52 547.097 422.624C548.505 421.728 549.571 420.427 550.297 418.72C551.065 417.013 551.449 414.901 551.449 412.384C551.449 408.629 550.617 405.771 548.953 403.808C547.289 401.845 545.049 400.864 542.233 400.864C540.398 400.864 538.777 401.312 537.369 402.208C536.003 403.061 534.937 404.341 534.169 406.048C533.401 407.755 533.017 409.867 533.017 412.384C533.017 416.139 533.849 419.019 535.513 421.024C537.219 422.987 539.459 423.968 542.233 423.968ZM569.427 428.32C568.531 428.32 567.827 428.043 567.315 427.488C566.803 426.933 566.547 426.165 566.547 425.184V399.648C566.547 398.624 566.803 397.856 567.315 397.344C567.827 396.789 568.531 396.512 569.427 396.512C570.366 396.512 571.091 396.789 571.603 397.344C572.115 397.856 572.371 398.624 572.371 399.648V425.184C572.371 426.165 572.115 426.933 571.603 427.488C571.134 428.043 570.408 428.32 569.427 428.32ZM569.427 389.6C568.275 389.6 567.358 389.301 566.675 388.704C566.035 388.064 565.715 387.232 565.715 386.208C565.715 385.099 566.035 384.267 566.675 383.712C567.358 383.115 568.275 382.816 569.427 382.816C570.664 382.816 571.582 383.115 572.179 383.712C572.819 384.267 573.139 385.099 573.139 386.208C573.139 387.232 572.819 388.064 572.179 388.704C571.582 389.301 570.664 389.6 569.427 389.6ZM584.615 428.448C583.719 428.448 583.015 428.192 582.503 427.68C581.991 427.168 581.735 426.421 581.735 425.44V399.328C581.735 398.347 581.991 397.621 582.503 397.152C583.015 396.64 583.719 396.384 584.615 396.384C585.511 396.384 586.193 396.64 586.663 397.152C587.175 397.621 587.431 398.347 587.431 399.328V404.576L586.727 403.616C587.623 401.184 589.073 399.349 591.079 398.112C593.127 396.875 595.452 396.256 598.055 396.256C600.572 396.256 602.641 396.704 604.263 397.6C605.884 398.496 607.1 399.861 607.911 401.696C608.721 403.531 609.127 405.856 609.127 408.672V425.44C609.127 426.421 608.871 427.168 608.359 427.68C607.889 428.192 607.185 428.448 606.247 428.448C605.308 428.448 604.583 428.192 604.071 427.68C603.559 427.168 603.303 426.421 603.303 425.44V408.992C603.303 406.219 602.769 404.192 601.703 402.912C600.636 401.632 598.929 400.992 596.583 400.992C593.852 400.992 591.655 401.845 589.991 403.552C588.369 405.216 587.559 407.477 587.559 410.336V425.44C587.559 427.445 586.577 428.448 584.615 428.448ZM632.376 440.096C630.072 440.096 627.832 439.84 625.656 439.328C623.522 438.816 621.581 438.027 619.832 436.96C619.277 436.619 618.893 436.213 618.68 435.744C618.509 435.317 618.466 434.869 618.552 434.4C618.68 433.931 618.893 433.504 619.192 433.12C619.533 432.779 619.917 432.544 620.344 432.416C620.813 432.331 621.282 432.437 621.752 432.736C623.629 433.803 625.421 434.528 627.128 434.912C628.834 435.296 630.456 435.488 631.992 435.488C635.021 435.488 637.282 434.699 638.776 433.12C640.312 431.584 641.08 429.323 641.08 426.336V419.424H641.656C641.058 421.813 639.714 423.712 637.624 425.12C635.576 426.528 633.186 427.232 630.456 427.232C627.64 427.232 625.186 426.592 623.095 425.312C621.005 423.989 619.384 422.176 618.232 419.872C617.08 417.525 616.504 414.816 616.504 411.744C616.504 409.397 616.824 407.285 617.464 405.408C618.146 403.488 619.085 401.867 620.28 400.544C621.517 399.179 622.989 398.133 624.696 397.408C626.402 396.64 628.322 396.256 630.456 396.256C633.229 396.256 635.64 396.96 637.688 398.368C639.736 399.776 641.058 401.675 641.656 404.064L640.952 404.96V399.328C640.952 398.347 641.208 397.621 641.72 397.152C642.232 396.64 642.957 396.384 643.896 396.384C644.792 396.384 645.496 396.64 646.007 397.152C646.52 397.621 646.776 398.347 646.776 399.328V425.568C646.776 430.389 645.538 434.016 643.064 436.448C640.632 438.88 637.069 440.096 632.376 440.096ZM631.736 422.624C633.656 422.624 635.298 422.197 636.664 421.344C638.072 420.448 639.138 419.189 639.864 417.568C640.632 415.904 641.016 413.963 641.016 411.744C641.016 408.373 640.184 405.728 638.52 403.808C636.856 401.845 634.594 400.864 631.736 400.864C629.816 400.864 628.152 401.312 626.744 402.208C625.378 403.061 624.312 404.299 623.544 405.92C622.776 407.541 622.392 409.483 622.392 411.744C622.392 415.072 623.224 417.717 624.888 419.68C626.594 421.643 628.877 422.624 631.736 422.624ZM262.987 509.368C260.896 509.368 258.976 508.877 257.227 507.896C255.477 506.872 254.069 505.507 253.003 503.8C251.936 502.093 251.403 500.173 251.403 498.04C251.403 496.077 251.893 494.243 252.875 492.536C253.899 490.787 255.285 489.379 257.035 488.312C258.784 487.203 260.768 486.648 262.987 486.648C265.035 486.648 266.933 487.139 268.683 488.12C270.475 489.101 271.904 490.467 272.971 492.216C274.037 493.923 274.571 495.864 274.571 498.04C274.571 500.131 274.037 502.029 272.971 503.736C271.947 505.443 270.56 506.808 268.811 507.832C267.061 508.856 265.12 509.368 262.987 509.368ZM331.992 515.576C329.176 515.576 326.765 514.872 324.76 513.464C322.755 512.056 321.411 510.157 320.728 507.768L321.432 506.808V512.44C321.432 513.421 321.176 514.168 320.664 514.68C320.195 515.192 319.491 515.448 318.552 515.448C317.656 515.448 316.952 515.192 316.44 514.68C315.928 514.168 315.672 513.421 315.672 512.44V472.376C315.672 471.395 315.928 470.669 316.44 470.2C316.952 469.688 317.656 469.432 318.552 469.432C319.491 469.432 320.216 469.688 320.728 470.2C321.24 470.669 321.496 471.395 321.496 472.376V490.872H320.792C321.475 488.568 322.819 486.733 324.824 485.368C326.829 483.96 329.219 483.256 331.992 483.256C334.765 483.256 337.176 483.917 339.224 485.24C341.315 486.52 342.915 488.376 344.024 490.808C345.176 493.197 345.752 496.056 345.752 499.384C345.752 502.669 345.176 505.549 344.024 508.024C342.872 510.456 341.272 512.333 339.224 513.656C337.176 514.936 334.765 515.576 331.992 515.576ZM330.648 510.968C332.483 510.968 334.083 510.52 335.448 509.624C336.856 508.728 337.944 507.427 338.712 505.72C339.48 504.013 339.864 501.901 339.864 499.384C339.864 495.629 339.032 492.771 337.368 490.808C335.704 488.845 333.464 487.864 330.648 487.864C328.771 487.864 327.128 488.312 325.72 489.208C324.355 490.061 323.288 491.341 322.52 493.048C321.795 494.755 321.432 496.867 321.432 499.384C321.432 503.139 322.264 506.019 323.928 508.024C325.592 509.987 327.832 510.968 330.648 510.968ZM363.027 515.576C359.827 515.576 357.395 514.637 355.731 512.76C354.067 510.84 353.235 508.088 353.235 504.504V472.376C353.235 471.395 353.491 470.669 354.003 470.2C354.515 469.688 355.219 469.432 356.115 469.432C357.053 469.432 357.779 469.688 358.291 470.2C358.803 470.669 359.059 471.395 359.059 472.376V504.056C359.059 506.275 359.507 507.939 360.403 509.048C361.341 510.115 362.664 510.648 364.371 510.648C364.755 510.648 365.096 510.648 365.395 510.648C365.693 510.605 365.992 510.563 366.291 510.52C366.76 510.477 367.101 510.605 367.315 510.904C367.528 511.203 367.635 511.8 367.635 512.696C367.635 513.507 367.443 514.147 367.059 514.616C366.717 515.043 366.141 515.32 365.331 515.448C364.947 515.491 364.563 515.512 364.179 515.512C363.795 515.555 363.411 515.576 363.027 515.576ZM385.42 515.576C382.348 515.576 379.681 514.915 377.42 513.592C375.159 512.269 373.409 510.392 372.172 507.96C370.935 505.528 370.316 502.669 370.316 499.384C370.316 496.909 370.657 494.691 371.34 492.728C372.065 490.723 373.089 489.016 374.412 487.608C375.735 486.2 377.313 485.133 379.148 484.408C381.025 483.64 383.116 483.256 385.42 483.256C388.492 483.256 391.159 483.917 393.42 485.24C395.681 486.563 397.431 488.44 398.668 490.872C399.905 493.261 400.524 496.099 400.524 499.384C400.524 501.859 400.161 504.099 399.436 506.104C398.753 508.109 397.751 509.816 396.428 511.224C395.105 512.632 393.505 513.72 391.628 514.488C389.793 515.213 387.724 515.576 385.42 515.576ZM385.42 510.968C387.297 510.968 388.919 510.52 390.284 509.624C391.692 508.728 392.759 507.427 393.484 505.72C394.252 504.013 394.636 501.901 394.636 499.384C394.636 495.629 393.804 492.771 392.14 490.808C390.476 488.845 388.236 487.864 385.42 487.864C383.585 487.864 381.964 488.312 380.556 489.208C379.191 490.061 378.124 491.341 377.356 493.048C376.588 494.755 376.204 496.867 376.204 499.384C376.204 503.139 377.036 506.019 378.7 508.024C380.407 509.987 382.647 510.968 385.42 510.968ZM421.489 515.576C418.331 515.576 415.601 514.915 413.297 513.592C410.993 512.227 409.222 510.328 407.985 507.896C406.747 505.421 406.129 502.52 406.129 499.192C406.129 496.717 406.47 494.499 407.153 492.536C407.878 490.573 408.902 488.909 410.225 487.544C411.547 486.136 413.147 485.069 415.025 484.344C416.945 483.619 419.099 483.256 421.489 483.256C422.982 483.256 424.561 483.491 426.225 483.96C427.889 484.429 429.425 485.197 430.833 486.264C431.302 486.605 431.601 487.011 431.729 487.48C431.857 487.907 431.857 488.355 431.729 488.824C431.643 489.293 431.43 489.699 431.089 490.04C430.79 490.339 430.385 490.509 429.873 490.552C429.403 490.595 428.891 490.445 428.337 490.104C427.313 489.336 426.225 488.781 425.073 488.44C423.963 488.099 422.897 487.928 421.873 487.928C420.294 487.928 418.886 488.184 417.649 488.696C416.454 489.208 415.43 489.955 414.577 490.936C413.766 491.875 413.147 493.048 412.72 494.456C412.294 495.821 412.081 497.421 412.081 499.256C412.081 502.883 412.934 505.741 414.641 507.832C416.347 509.88 418.758 510.904 421.873 510.904C422.897 510.904 423.963 510.755 425.073 510.456C426.182 510.115 427.27 509.56 428.337 508.792C428.891 508.451 429.403 508.323 429.873 508.408C430.342 508.451 430.726 508.643 431.025 508.984C431.366 509.283 431.579 509.667 431.665 510.136C431.75 510.563 431.707 511.011 431.537 511.48C431.409 511.949 431.11 512.333 430.641 512.632C429.275 513.656 427.782 514.403 426.161 514.872C424.539 515.341 422.982 515.576 421.489 515.576ZM440.615 515.448C439.719 515.448 439.015 515.192 438.503 514.68C437.991 514.168 437.735 513.421 437.735 512.44V472.376C437.735 471.395 437.991 470.669 438.503 470.2C439.015 469.688 439.719 469.432 440.615 469.432C441.553 469.432 442.279 469.688 442.791 470.2C443.303 470.669 443.559 471.395 443.559 472.376V497.592H443.687L456.231 485.368C456.871 484.728 457.447 484.237 457.959 483.896C458.471 483.555 459.132 483.384 459.943 483.384C460.753 483.384 461.372 483.597 461.799 484.024C462.225 484.408 462.439 484.92 462.439 485.56C462.439 486.157 462.14 486.755 461.543 487.352L448.231 500.28V497.4L462.759 511.416C463.356 512.013 463.633 512.632 463.591 513.272C463.591 513.912 463.356 514.445 462.887 514.872C462.46 515.256 461.884 515.448 461.159 515.448C460.305 515.448 459.601 515.277 459.047 514.936C458.535 514.595 457.937 514.061 457.255 513.336L443.687 500.536H443.559V512.44C443.559 514.445 442.577 515.448 440.615 515.448ZM483.885 515.576C480.514 515.576 477.613 514.936 475.181 513.656C472.791 512.333 470.935 510.477 469.613 508.088C468.29 505.656 467.629 502.797 467.629 499.512C467.629 496.269 468.269 493.432 469.549 491C470.871 488.568 472.663 486.669 474.925 485.304C477.229 483.939 479.853 483.256 482.797 483.256C484.887 483.256 486.765 483.619 488.429 484.344C490.135 485.027 491.586 486.029 492.781 487.352C493.975 488.675 494.871 490.296 495.469 492.216C496.109 494.093 496.429 496.227 496.429 498.616C496.429 499.299 496.215 499.832 495.789 500.216C495.405 500.557 494.829 500.728 494.061 500.728H472.173V497.016H492.589L491.501 497.912C491.501 495.693 491.159 493.816 490.477 492.28C489.837 490.701 488.877 489.507 487.597 488.696C486.359 487.885 484.802 487.48 482.925 487.48C480.877 487.48 479.127 487.971 477.677 488.952C476.226 489.891 475.117 491.235 474.349 492.984C473.581 494.691 473.197 496.675 473.197 498.936V499.32C473.197 503.16 474.114 506.061 475.949 508.024C477.783 509.987 480.429 510.968 483.885 510.968C485.25 510.968 486.637 510.797 488.045 510.456C489.495 510.115 490.882 509.496 492.205 508.6C492.845 508.216 493.421 508.045 493.933 508.088C494.487 508.088 494.935 508.259 495.277 508.6C495.618 508.899 495.831 509.283 495.917 509.752C496.002 510.179 495.938 510.648 495.725 511.16C495.511 511.672 495.106 512.12 494.509 512.504C493.101 513.485 491.415 514.253 489.453 514.808C487.533 515.32 485.677 515.576 483.885 515.576ZM515.576 515.576C512.845 515.576 510.435 514.936 508.344 513.656C506.296 512.333 504.696 510.456 503.544 508.024C502.392 505.549 501.816 502.669 501.816 499.384C501.816 496.056 502.371 493.197 503.48 490.808C504.632 488.376 506.232 486.52 508.28 485.24C510.371 483.917 512.803 483.256 515.576 483.256C518.349 483.256 520.739 483.96 522.744 485.368C524.749 486.733 526.093 488.568 526.776 490.872H526.072V472.376C526.072 471.395 526.307 470.669 526.776 470.2C527.288 469.688 528.013 469.432 528.952 469.432C529.891 469.432 530.616 469.688 531.128 470.2C531.64 470.669 531.896 471.395 531.896 472.376V512.44C531.896 513.421 531.64 514.168 531.128 514.68C530.616 515.192 529.891 515.448 528.952 515.448C528.056 515.448 527.352 515.192 526.84 514.68C526.328 514.168 526.072 513.421 526.072 512.44V506.616L526.776 507.768C526.136 510.157 524.792 512.056 522.744 513.464C520.739 514.872 518.349 515.576 515.576 515.576ZM516.92 510.968C518.797 510.968 520.419 510.52 521.784 509.624C523.192 508.728 524.259 507.427 524.984 505.72C525.752 504.013 526.136 501.901 526.136 499.384C526.136 495.629 525.304 492.771 523.64 490.808C521.976 488.845 519.736 487.864 516.92 487.864C515.085 487.864 513.464 488.312 512.056 489.208C510.691 490.061 509.624 491.341 508.856 493.048C508.088 494.755 507.704 496.867 507.704 499.384C507.704 503.139 508.536 506.019 510.2 508.024C511.907 509.987 514.147 510.968 516.92 510.968ZM574.242 515.576C571.426 515.576 569.015 514.872 567.01 513.464C565.005 512.056 563.661 510.157 562.978 507.768L563.682 506.808V512.44C563.682 513.421 563.426 514.168 562.914 514.68C562.445 515.192 561.741 515.448 560.802 515.448C559.906 515.448 559.202 515.192 558.69 514.68C558.178 514.168 557.922 513.421 557.922 512.44V472.376C557.922 471.395 558.178 470.669 558.69 470.2C559.202 469.688 559.906 469.432 560.802 469.432C561.741 469.432 562.466 469.688 562.978 470.2C563.49 470.669 563.746 471.395 563.746 472.376V490.872H563.042C563.725 488.568 565.069 486.733 567.074 485.368C569.079 483.96 571.469 483.256 574.242 483.256C577.015 483.256 579.426 483.917 581.474 485.24C583.565 486.52 585.165 488.376 586.274 490.808C587.426 493.197 588.002 496.056 588.002 499.384C588.002 502.669 587.426 505.549 586.274 508.024C585.122 510.456 583.522 512.333 581.474 513.656C579.426 514.936 577.015 515.576 574.242 515.576ZM572.898 510.968C574.733 510.968 576.333 510.52 577.698 509.624C579.106 508.728 580.194 507.427 580.962 505.72C581.73 504.013 582.114 501.901 582.114 499.384C582.114 495.629 581.282 492.771 579.618 490.808C577.954 488.845 575.714 487.864 572.898 487.864C571.021 487.864 569.378 488.312 567.97 489.208C566.605 490.061 565.538 491.341 564.77 493.048C564.045 494.755 563.682 496.867 563.682 499.384C563.682 503.139 564.514 506.019 566.178 508.024C567.842 509.987 570.082 510.968 572.898 510.968ZM602.153 526.968C601.47 526.968 600.894 526.776 600.425 526.392C599.998 526.051 599.742 525.56 599.657 524.92C599.614 524.323 599.742 523.683 600.041 523L604.393 513.144V515.576L592.297 487.416C591.998 486.691 591.891 486.029 591.977 485.432C592.062 484.835 592.339 484.344 592.809 483.96C593.321 483.576 594.003 483.384 594.857 483.384C595.582 483.384 596.158 483.555 596.585 483.896C597.011 484.237 597.417 484.835 597.801 485.688L607.849 510.456H606.057L616.297 485.688C616.638 484.835 617.043 484.237 617.513 483.896C617.982 483.555 618.622 483.384 619.433 483.384C620.158 483.384 620.713 483.576 621.097 483.96C621.523 484.344 621.779 484.835 621.865 485.432C621.95 486.029 621.822 486.669 621.481 487.352L605.353 524.664C604.926 525.56 604.478 526.157 604.009 526.456C603.582 526.797 602.963 526.968 602.153 526.968ZM657.663 515.576C655.145 515.576 653.033 515.128 651.327 514.232C649.663 513.336 648.404 512.035 647.551 510.328C646.74 508.621 646.335 506.531 646.335 504.056V488.312H642.239C641.471 488.312 640.873 488.12 640.447 487.736C640.02 487.309 639.806 486.755 639.806 486.072C639.806 485.347 640.02 484.792 640.447 484.408C640.873 484.024 641.471 483.832 642.239 483.832H646.335V476.856C646.335 475.875 646.591 475.149 647.103 474.68C647.615 474.168 648.34 473.912 649.279 473.912C650.217 473.912 650.921 474.168 651.391 474.68C651.903 475.149 652.159 475.875 652.159 476.856V483.832H659.903C660.713 483.832 661.332 484.024 661.759 484.408C662.185 484.792 662.399 485.347 662.399 486.072C662.399 486.755 662.185 487.309 661.759 487.736C661.332 488.12 660.713 488.312 659.903 488.312H652.159V503.544C652.159 505.891 652.649 507.661 653.631 508.856C654.612 510.051 656.233 510.648 658.495 510.648C659.305 510.648 659.988 510.584 660.543 510.456C661.097 510.285 661.588 510.2 662.015 510.2C662.399 510.157 662.719 510.285 662.975 510.584C663.273 510.883 663.423 511.437 663.423 512.248C663.423 512.845 663.316 513.4 663.103 513.912C662.932 514.381 662.569 514.701 662.015 514.872C661.503 515.043 660.82 515.192 659.967 515.32C659.113 515.491 658.345 515.576 657.663 515.576ZM671.052 515.448C670.156 515.448 669.452 515.192 668.94 514.68C668.428 514.168 668.172 513.421 668.172 512.44V472.376C668.172 471.395 668.428 470.669 668.94 470.2C669.452 469.688 670.156 469.432 671.052 469.432C671.991 469.432 672.716 469.688 673.228 470.2C673.74 470.669 673.996 471.395 673.996 472.376V490.616H673.164C674.06 488.184 675.511 486.349 677.516 485.112C679.564 483.875 681.889 483.256 684.492 483.256C687.009 483.256 689.079 483.725 690.7 484.664C692.321 485.56 693.537 486.925 694.348 488.76C695.159 490.595 695.564 492.899 695.564 495.672V512.44C695.564 513.421 695.308 514.168 694.796 514.68C694.327 515.192 693.623 515.448 692.684 515.448C691.745 515.448 691.02 515.192 690.508 514.68C689.996 514.168 689.74 513.421 689.74 512.44V495.992C689.74 493.219 689.207 491.192 688.14 489.912C687.073 488.632 685.367 487.992 683.02 487.992C680.289 487.992 678.092 488.845 676.428 490.552C674.807 492.216 673.996 494.477 673.996 497.336V512.44C673.996 514.445 673.015 515.448 671.052 515.448ZM719.197 515.576C715.826 515.576 712.925 514.936 710.493 513.656C708.104 512.333 706.248 510.477 704.925 508.088C703.602 505.656 702.941 502.797 702.941 499.512C702.941 496.269 703.581 493.432 704.861 491C706.184 488.568 707.976 486.669 710.237 485.304C712.541 483.939 715.165 483.256 718.109 483.256C720.2 483.256 722.077 483.619 723.741 484.344C725.448 485.027 726.898 486.029 728.093 487.352C729.288 488.675 730.184 490.296 730.781 492.216C731.421 494.093 731.741 496.227 731.741 498.616C731.741 499.299 731.528 499.832 731.101 500.216C730.717 500.557 730.141 500.728 729.373 500.728H707.485V497.016H727.901L726.813 497.912C726.813 495.693 726.472 493.816 725.789 492.28C725.149 490.701 724.189 489.507 722.909 488.696C721.672 487.885 720.114 487.48 718.237 487.48C716.189 487.48 714.44 487.971 712.989 488.952C711.538 489.891 710.429 491.235 709.661 492.984C708.893 494.691 708.509 496.675 708.509 498.936V499.32C708.509 503.16 709.426 506.061 711.261 508.024C713.096 509.987 715.741 510.968 719.197 510.968C720.562 510.968 721.949 510.797 723.357 510.456C724.808 510.115 726.194 509.496 727.517 508.6C728.157 508.216 728.733 508.045 729.245 508.088C729.8 508.088 730.248 508.259 730.589 508.6C730.93 508.899 731.144 509.283 731.229 509.752C731.314 510.179 731.25 510.648 731.037 511.16C730.824 511.672 730.418 512.12 729.821 512.504C728.413 513.485 726.728 514.253 724.765 514.808C722.845 515.32 720.989 515.576 719.197 515.576ZM766.744 515.448C765.933 515.448 765.229 515.256 764.632 514.872C764.035 514.445 763.565 513.763 763.224 512.824L753.688 487.416C753.389 486.605 753.304 485.901 753.432 485.304C753.56 484.707 753.859 484.237 754.328 483.896C754.797 483.555 755.416 483.384 756.184 483.384C756.909 483.384 757.485 483.555 757.912 483.896C758.339 484.237 758.701 484.856 759 485.752L767.704 510.328H766.168L775.128 485.624C775.427 484.856 775.811 484.301 776.28 483.96C776.792 483.576 777.411 483.384 778.136 483.384C778.904 483.384 779.544 483.576 780.056 483.96C780.568 484.301 780.931 484.856 781.144 485.624L789.976 510.328H788.504L797.336 485.624C797.635 484.771 798.019 484.195 798.488 483.896C798.957 483.555 799.533 483.384 800.216 483.384C800.984 483.384 801.56 483.576 801.944 483.96C802.328 484.344 802.541 484.856 802.584 485.496C802.669 486.093 802.584 486.733 802.328 487.416L792.792 512.824C792.493 513.72 792.024 514.381 791.384 514.808C790.787 515.235 790.083 515.448 789.272 515.448C788.461 515.448 787.736 515.235 787.096 514.808C786.499 514.381 786.029 513.72 785.688 512.824L776.536 487.736H779.48L770.328 512.824C769.987 513.72 769.517 514.381 768.92 514.808C768.323 515.235 767.597 515.448 766.744 515.448ZM823.572 515.576C820.201 515.576 817.3 514.936 814.868 513.656C812.479 512.333 810.623 510.477 809.3 508.088C807.977 505.656 807.316 502.797 807.316 499.512C807.316 496.269 807.956 493.432 809.236 491C810.559 488.568 812.351 486.669 814.612 485.304C816.916 483.939 819.54 483.256 822.484 483.256C824.575 483.256 826.452 483.619 828.116 484.344C829.823 485.027 831.273 486.029 832.468 487.352C833.663 488.675 834.559 490.296 835.156 492.216C835.796 494.093 836.116 496.227 836.116 498.616C836.116 499.299 835.903 499.832 835.476 500.216C835.092 500.557 834.516 500.728 833.748 500.728H811.86V497.016H832.276L831.188 497.912C831.188 495.693 830.847 493.816 830.164 492.28C829.524 490.701 828.564 489.507 827.284 488.696C826.047 487.885 824.489 487.48 822.612 487.48C820.564 487.48 818.815 487.971 817.364 488.952C815.913 489.891 814.804 491.235 814.036 492.984C813.268 494.691 812.884 496.675 812.884 498.936V499.32C812.884 503.16 813.801 506.061 815.636 508.024C817.471 509.987 820.116 510.968 823.572 510.968C824.937 510.968 826.324 510.797 827.732 510.456C829.183 510.115 830.569 509.496 831.892 508.6C832.532 508.216 833.108 508.045 833.62 508.088C834.175 508.088 834.623 508.259 834.964 508.6C835.305 508.899 835.519 509.283 835.604 509.752C835.689 510.179 835.625 510.648 835.412 511.16C835.199 511.672 834.793 512.12 834.196 512.504C832.788 513.485 831.103 514.253 829.14 514.808C827.22 515.32 825.364 515.576 823.572 515.576ZM859.68 515.576C856.864 515.576 854.453 514.872 852.448 513.464C850.442 512.056 849.098 510.157 848.416 507.768L849.12 506.808V512.44C849.12 513.421 848.864 514.168 848.352 514.68C847.882 515.192 847.178 515.448 846.24 515.448C845.344 515.448 844.64 515.192 844.128 514.68C843.616 514.168 843.36 513.421 843.36 512.44V472.376C843.36 471.395 843.616 470.669 844.128 470.2C844.64 469.688 845.344 469.432 846.24 469.432C847.178 469.432 847.904 469.688 848.416 470.2C848.928 470.669 849.184 471.395 849.184 472.376V490.872H848.48C849.162 488.568 850.506 486.733 852.512 485.368C854.517 483.96 856.906 483.256 859.68 483.256C862.453 483.256 864.864 483.917 866.912 485.24C869.002 486.52 870.602 488.376 871.712 490.808C872.864 493.197 873.44 496.056 873.44 499.384C873.44 502.669 872.864 505.549 871.712 508.024C870.56 510.456 868.96 512.333 866.912 513.656C864.864 514.936 862.453 515.576 859.68 515.576ZM858.336 510.968C860.17 510.968 861.77 510.52 863.136 509.624C864.544 508.728 865.632 507.427 866.4 505.72C867.168 504.013 867.552 501.901 867.552 499.384C867.552 495.629 866.72 492.771 865.056 490.808C863.392 488.845 861.152 487.864 858.336 487.864C856.458 487.864 854.816 488.312 853.408 489.208C852.042 490.061 850.976 491.341 850.208 493.048C849.482 494.755 849.12 496.867 849.12 499.384C849.12 503.139 849.952 506.019 851.616 508.024C853.28 509.987 855.52 510.968 858.336 510.968ZM891.674 515.576C889.754 515.576 887.813 515.363 885.85 514.936C883.93 514.467 882.117 513.677 880.41 512.568C879.941 512.269 879.599 511.907 879.386 511.48C879.215 511.011 879.151 510.563 879.194 510.136C879.279 509.667 879.471 509.261 879.77 508.92C880.069 508.579 880.431 508.387 880.858 508.344C881.327 508.259 881.818 508.365 882.33 508.664C883.994 509.603 885.594 510.264 887.13 510.648C888.709 511.032 890.266 511.224 891.802 511.224C894.149 511.224 895.919 510.797 897.114 509.944C898.309 509.091 898.906 507.96 898.906 506.552C898.906 505.357 898.501 504.44 897.69 503.8C896.922 503.117 895.706 502.605 894.042 502.264L888.09 501.048C885.445 500.451 883.439 499.469 882.074 498.104C880.751 496.696 880.09 494.904 880.09 492.728C880.09 490.808 880.602 489.144 881.626 487.736C882.693 486.285 884.165 485.176 886.042 484.408C887.919 483.64 890.074 483.256 892.506 483.256C894.383 483.256 896.154 483.512 897.818 484.024C899.525 484.493 901.061 485.219 902.426 486.2C902.938 486.499 903.258 486.883 903.386 487.352C903.557 487.779 903.578 488.227 903.45 488.696C903.365 489.123 903.173 489.485 902.874 489.784C902.575 490.083 902.191 490.275 901.722 490.36C901.253 490.403 900.741 490.275 900.186 489.976C898.949 489.123 897.669 488.525 896.346 488.184C895.066 487.8 893.786 487.608 892.506 487.608C890.202 487.608 888.453 488.056 887.258 488.952C886.106 489.848 885.53 491.021 885.53 492.472C885.53 493.581 885.871 494.499 886.554 495.224C887.279 495.949 888.41 496.483 889.946 496.824L895.898 498.04C898.671 498.637 900.762 499.597 902.17 500.92C903.578 502.2 904.282 503.949 904.282 506.168C904.282 509.069 903.13 511.373 900.826 513.08C898.565 514.744 895.514 515.576 891.674 515.576ZM914.74 515.32C913.844 515.32 913.14 515.043 912.628 514.488C912.116 513.933 911.86 513.165 911.86 512.184V486.648C911.86 485.624 912.116 484.856 912.628 484.344C913.14 483.789 913.844 483.512 914.74 483.512C915.678 483.512 916.404 483.789 916.916 484.344C917.428 484.856 917.684 485.624 917.684 486.648V512.184C917.684 513.165 917.428 513.933 916.916 514.488C916.446 515.043 915.721 515.32 914.74 515.32ZM914.74 476.6C913.588 476.6 912.67 476.301 911.988 475.704C911.348 475.064 911.028 474.232 911.028 473.208C911.028 472.099 911.348 471.267 911.988 470.712C912.67 470.115 913.588 469.816 914.74 469.816C915.977 469.816 916.894 470.115 917.492 470.712C918.132 471.267 918.452 472.099 918.452 473.208C918.452 474.232 918.132 475.064 917.492 475.704C916.894 476.301 915.977 476.6 914.74 476.6ZM939.975 515.576C937.458 515.576 935.346 515.128 933.639 514.232C931.975 513.336 930.716 512.035 929.863 510.328C929.052 508.621 928.647 506.531 928.647 504.056V488.312H924.551C923.783 488.312 923.186 488.12 922.759 487.736C922.332 487.309 922.119 486.755 922.119 486.072C922.119 485.347 922.332 484.792 922.759 484.408C923.186 484.024 923.783 483.832 924.551 483.832H928.647V476.856C928.647 475.875 928.903 475.149 929.415 474.68C929.927 474.168 930.652 473.912 931.591 473.912C932.53 473.912 933.234 474.168 933.703 474.68C934.215 475.149 934.471 475.875 934.471 476.856V483.832H942.215C943.026 483.832 943.644 484.024 944.071 484.408C944.498 484.792 944.711 485.347 944.711 486.072C944.711 486.755 944.498 487.309 944.071 487.736C943.644 488.12 943.026 488.312 942.215 488.312H934.471V503.544C934.471 505.891 934.962 507.661 935.943 508.856C936.924 510.051 938.546 510.648 940.807 510.648C941.618 510.648 942.3 510.584 942.855 510.456C943.41 510.285 943.9 510.2 944.327 510.2C944.711 510.157 945.031 510.285 945.287 510.584C945.586 510.883 945.735 511.437 945.735 512.248C945.735 512.845 945.628 513.4 945.415 513.912C945.244 514.381 944.882 514.701 944.327 514.872C943.815 515.043 943.132 515.192 942.279 515.32C941.426 515.491 940.658 515.576 939.975 515.576ZM964.072 515.576C960.701 515.576 957.8 514.936 955.368 513.656C952.979 512.333 951.123 510.477 949.8 508.088C948.477 505.656 947.816 502.797 947.816 499.512C947.816 496.269 948.456 493.432 949.736 491C951.059 488.568 952.851 486.669 955.112 485.304C957.416 483.939 960.04 483.256 962.984 483.256C965.075 483.256 966.952 483.619 968.616 484.344C970.323 485.027 971.773 486.029 972.968 487.352C974.163 488.675 975.059 490.296 975.656 492.216C976.296 494.093 976.616 496.227 976.616 498.616C976.616 499.299 976.403 499.832 975.976 500.216C975.592 500.557 975.016 500.728 974.248 500.728H952.36V497.016H972.776L971.688 497.912C971.688 495.693 971.347 493.816 970.664 492.28C970.024 490.701 969.064 489.507 967.784 488.696C966.547 487.885 964.989 487.48 963.112 487.48C961.064 487.48 959.315 487.971 957.864 488.952C956.413 489.891 955.304 491.235 954.536 492.984C953.768 494.691 953.384 496.675 953.384 498.936V499.32C953.384 503.16 954.301 506.061 956.136 508.024C957.971 509.987 960.616 510.968 964.072 510.968C965.437 510.968 966.824 510.797 968.232 510.456C969.683 510.115 971.069 509.496 972.392 508.6C973.032 508.216 973.608 508.045 974.12 508.088C974.675 508.088 975.123 508.259 975.464 508.6C975.805 508.899 976.019 509.283 976.104 509.752C976.189 510.179 976.125 510.648 975.912 511.16C975.699 511.672 975.293 512.12 974.696 512.504C973.288 513.485 971.603 514.253 969.64 514.808C967.72 515.32 965.864 515.576 964.072 515.576ZM1015.08 515.448C1014.14 515.448 1013.41 515.192 1012.9 514.68C1012.39 514.125 1012.13 513.336 1012.13 512.312V491.64L1013.41 495.608L997.539 473.592C997.112 472.995 996.899 472.376 996.899 471.736C996.942 471.053 997.198 470.499 997.667 470.072C998.136 469.645 998.776 469.432 999.587 469.432C1000.23 469.432 1000.8 469.581 1001.32 469.88C1001.83 470.179 1002.32 470.669 1002.79 471.352L1015.97 489.528H1014.5L1027.68 471.352C1028.15 470.627 1028.62 470.136 1029.09 469.88C1029.56 469.581 1030.16 469.432 1030.88 469.432C1031.65 469.432 1032.25 469.645 1032.68 470.072C1033.14 470.456 1033.38 470.968 1033.38 471.608C1033.42 472.248 1033.19 472.909 1032.68 473.592L1016.8 495.608L1018.08 491.64V512.312C1018.08 514.403 1017.08 515.448 1015.08 515.448ZM1056.2 515.576C1051.94 515.576 1048.25 514.637 1045.13 512.76C1042.02 510.84 1039.59 508.152 1037.84 504.696C1036.13 501.197 1035.28 497.101 1035.28 492.408C1035.28 488.867 1035.77 485.688 1036.75 482.872C1037.73 480.013 1039.12 477.581 1040.91 475.576C1042.74 473.528 1044.94 471.971 1047.5 470.904C1050.1 469.837 1053 469.304 1056.2 469.304C1060.47 469.304 1064.16 470.243 1067.28 472.12C1070.39 473.997 1072.8 476.664 1074.51 480.12C1076.21 483.576 1077.07 487.651 1077.07 492.344C1077.07 495.885 1076.58 499.085 1075.6 501.944C1074.61 504.803 1073.21 507.256 1071.37 509.304C1069.58 511.352 1067.4 512.909 1064.84 513.976C1062.28 515.043 1059.4 515.576 1056.2 515.576ZM1056.2 510.328C1059.28 510.328 1061.9 509.624 1064.08 508.216C1066.25 506.808 1067.92 504.76 1069.07 502.072C1070.26 499.384 1070.86 496.163 1070.86 492.408C1070.86 486.733 1069.58 482.339 1067.02 479.224C1064.5 476.109 1060.9 474.552 1056.2 474.552C1053.13 474.552 1050.49 475.256 1048.27 476.664C1046.09 478.029 1044.43 480.056 1043.28 482.744C1042.12 485.389 1041.55 488.611 1041.55 492.408C1041.55 498.04 1042.83 502.435 1045.39 505.592C1047.95 508.749 1051.55 510.328 1056.2 510.328ZM1104.3 515.576C1101.31 515.576 1098.67 515.192 1096.36 514.424C1094.1 513.613 1092.2 512.44 1090.67 510.904C1089.13 509.325 1087.96 507.384 1087.15 505.08C1086.38 502.733 1086 500.024 1086 496.952V472.44C1086 471.416 1086.25 470.669 1086.76 470.2C1087.28 469.688 1088 469.432 1088.94 469.432C1089.92 469.432 1090.67 469.688 1091.18 470.2C1091.69 470.669 1091.95 471.416 1091.95 472.44V496.76C1091.95 501.325 1092.99 504.739 1095.08 507C1097.17 509.219 1100.25 510.328 1104.3 510.328C1108.35 510.328 1111.42 509.219 1113.52 507C1115.61 504.739 1116.65 501.325 1116.65 496.76V472.44C1116.65 471.416 1116.91 470.669 1117.42 470.2C1117.93 469.688 1118.66 469.432 1119.6 469.432C1120.53 469.432 1121.26 469.688 1121.77 470.2C1122.28 470.669 1122.54 471.416 1122.54 472.44V496.952C1122.54 501.005 1121.84 504.419 1120.43 507.192C1119.06 509.965 1117.01 512.056 1114.28 513.464C1111.6 514.872 1108.27 515.576 1104.3 515.576ZM1149.18 515.448C1148.41 515.448 1147.79 515.277 1147.32 514.936C1146.89 514.595 1146.64 514.125 1146.55 513.528C1146.47 512.931 1146.59 512.269 1146.94 511.544L1164.41 471.992C1164.79 471.096 1165.28 470.456 1165.88 470.072C1166.48 469.645 1167.14 469.432 1167.86 469.432C1168.59 469.432 1169.23 469.645 1169.78 470.072C1170.38 470.456 1170.89 471.096 1171.32 471.992L1188.79 511.544C1189.13 512.269 1189.26 512.952 1189.18 513.592C1189.13 514.189 1188.9 514.659 1188.47 515C1188.04 515.299 1187.45 515.448 1186.68 515.448C1185.83 515.448 1185.14 515.235 1184.63 514.808C1184.12 514.339 1183.67 513.677 1183.29 512.824L1178.74 502.2L1181.5 503.736H1154.1L1156.86 502.2L1152.31 512.824C1151.93 513.763 1151.5 514.445 1151.03 514.872C1150.56 515.256 1149.94 515.448 1149.18 515.448ZM1167.74 476.6L1157.75 500.216L1156.22 498.872H1179.38L1177.91 500.216L1167.86 476.6H1167.74ZM1199.7 515.448C1198.76 515.448 1198.03 515.192 1197.52 514.68C1197.01 514.125 1196.75 513.357 1196.75 512.376V472.888C1196.75 471.907 1197.01 471.16 1197.52 470.648C1198.08 470.136 1198.82 469.88 1199.76 469.88H1214.99C1219.86 469.88 1223.59 471.032 1226.19 473.336C1228.84 475.597 1230.16 478.819 1230.16 483C1230.16 485.731 1229.56 488.077 1228.37 490.04C1227.17 491.96 1225.45 493.432 1223.18 494.456C1220.92 495.48 1218.19 495.992 1214.99 495.992L1215.63 495.096H1217.04C1218.75 495.096 1220.22 495.523 1221.46 496.376C1222.74 497.229 1223.87 498.595 1224.85 500.472L1230.74 511.288C1231.12 511.971 1231.29 512.632 1231.25 513.272C1231.21 513.912 1230.97 514.445 1230.54 514.872C1230.12 515.256 1229.5 515.448 1228.69 515.448C1227.84 515.448 1227.15 515.277 1226.64 514.936C1226.13 514.552 1225.68 513.997 1225.3 513.272L1218.38 500.6C1217.45 498.808 1216.38 497.635 1215.18 497.08C1213.99 496.483 1212.39 496.184 1210.38 496.184H1202.7V512.376C1202.7 513.357 1202.45 514.125 1201.94 514.68C1201.47 515.192 1200.72 515.448 1199.7 515.448ZM1202.7 491.576H1214.03C1217.45 491.576 1220.01 490.872 1221.71 489.464C1223.42 488.013 1224.27 485.901 1224.27 483.128C1224.27 480.355 1223.42 478.264 1221.71 476.856C1220.01 475.448 1217.45 474.744 1214.03 474.744H1202.7V491.576ZM1243.02 515C1241.99 515 1241.2 514.723 1240.65 514.168C1240.09 513.613 1239.82 512.824 1239.82 511.8V473.08C1239.82 472.056 1240.09 471.267 1240.65 470.712C1241.2 470.157 1241.99 469.88 1243.02 469.88H1266.57C1267.38 469.88 1268 470.093 1268.42 470.52C1268.89 470.904 1269.13 471.48 1269.13 472.248C1269.13 473.059 1268.89 473.677 1268.42 474.104C1268 474.531 1267.38 474.744 1266.57 474.744H1245.58V489.656H1265.22C1266.03 489.656 1266.65 489.869 1267.08 490.296C1267.51 490.723 1267.72 491.32 1267.72 492.088C1267.72 492.899 1267.51 493.517 1267.08 493.944C1266.65 494.328 1266.03 494.52 1265.22 494.52H1245.58V510.136H1266.57C1267.38 510.136 1268 510.349 1268.42 510.776C1268.89 511.16 1269.13 511.757 1269.13 512.568C1269.13 513.379 1268.89 513.997 1268.42 514.424C1268 514.808 1267.38 515 1266.57 515H1243.02ZM1313.27 515.576C1309 515.576 1305.31 514.637 1302.19 512.76C1299.08 510.84 1296.65 508.152 1294.9 504.696C1293.19 501.197 1292.34 497.101 1292.34 492.408C1292.34 488.867 1292.83 485.688 1293.81 482.872C1294.79 480.013 1296.18 477.581 1297.97 475.576C1299.81 473.528 1302 471.971 1304.56 470.904C1307.17 469.837 1310.07 469.304 1313.27 469.304C1317.53 469.304 1321.22 470.243 1324.34 472.12C1327.45 473.997 1329.86 476.664 1331.57 480.12C1333.28 483.576 1334.13 487.651 1334.13 492.344C1334.13 495.885 1333.64 499.085 1332.66 501.944C1331.68 504.803 1330.27 507.256 1328.43 509.304C1326.64 511.352 1324.47 512.909 1321.91 513.976C1319.35 515.043 1316.47 515.576 1313.27 515.576ZM1313.27 510.328C1316.34 510.328 1318.96 509.624 1321.14 508.216C1323.31 506.808 1324.98 504.76 1326.13 502.072C1327.33 499.384 1327.92 496.163 1327.92 492.408C1327.92 486.733 1326.64 482.339 1324.08 479.224C1321.57 476.109 1317.96 474.552 1313.27 474.552C1310.19 474.552 1307.55 475.256 1305.33 476.664C1303.15 478.029 1301.49 480.056 1300.34 482.744C1299.19 485.389 1298.61 488.611 1298.61 492.408C1298.61 498.04 1299.89 502.435 1302.45 505.592C1305.01 508.749 1308.62 510.328 1313.27 510.328ZM1346.13 515.448C1345.28 515.448 1344.59 515.192 1344.08 514.68C1343.61 514.168 1343.38 513.464 1343.38 512.568V472.44C1343.38 471.459 1343.61 470.712 1344.08 470.2C1344.55 469.688 1345.17 469.432 1345.94 469.432C1346.66 469.432 1347.22 469.56 1347.6 469.816C1347.99 470.072 1348.41 470.52 1348.88 471.16L1376.02 507.128H1374.42V472.312C1374.42 471.373 1374.65 470.669 1375.12 470.2C1375.63 469.688 1376.34 469.432 1377.23 469.432C1378.13 469.432 1378.81 469.688 1379.28 470.2C1379.75 470.669 1379.99 471.373 1379.99 472.312V512.568C1379.99 513.464 1379.75 514.168 1379.28 514.68C1378.85 515.192 1378.28 515.448 1377.55 515.448C1376.87 515.448 1376.29 515.299 1375.83 515C1375.4 514.744 1374.95 514.296 1374.48 513.656L1347.41 477.688H1348.88V512.568C1348.88 513.464 1348.65 514.168 1348.18 514.68C1347.71 515.192 1347.03 515.448 1346.13 515.448ZM262.987 596.368C260.896 596.368 258.976 595.877 257.227 594.896C255.477 593.872 254.069 592.507 253.003 590.8C251.936 589.093 251.403 587.173 251.403 585.04C251.403 583.077 251.893 581.243 252.875 579.536C253.899 577.787 255.285 576.379 257.035 575.312C258.784 574.203 260.768 573.648 262.987 573.648C265.035 573.648 266.933 574.139 268.683 575.12C270.475 576.101 271.904 577.467 272.971 579.216C274.037 580.923 274.571 582.864 274.571 585.04C274.571 587.131 274.037 589.029 272.971 590.736C271.947 592.443 270.56 593.808 268.811 594.832C267.061 595.856 265.12 596.368 262.987 596.368ZM329.176 602.576C326.019 602.576 323.288 601.915 320.984 600.592C318.68 599.227 316.909 597.328 315.672 594.896C314.435 592.421 313.816 589.52 313.816 586.192C313.816 583.717 314.157 581.499 314.84 579.536C315.565 577.573 316.589 575.909 317.912 574.544C319.235 573.136 320.835 572.069 322.712 571.344C324.632 570.619 326.787 570.256 329.176 570.256C330.669 570.256 332.248 570.491 333.912 570.96C335.576 571.429 337.112 572.197 338.52 573.264C338.989 573.605 339.288 574.011 339.416 574.48C339.544 574.907 339.544 575.355 339.416 575.824C339.331 576.293 339.117 576.699 338.776 577.04C338.477 577.339 338.072 577.509 337.56 577.552C337.091 577.595 336.579 577.445 336.024 577.104C335 576.336 333.912 575.781 332.76 575.44C331.651 575.099 330.584 574.928 329.56 574.928C327.981 574.928 326.573 575.184 325.336 575.696C324.141 576.208 323.117 576.955 322.264 577.936C321.453 578.875 320.835 580.048 320.408 581.456C319.981 582.821 319.768 584.421 319.768 586.256C319.768 589.883 320.621 592.741 322.328 594.832C324.035 596.88 326.445 597.904 329.56 597.904C330.584 597.904 331.651 597.755 332.76 597.456C333.869 597.115 334.957 596.56 336.024 595.792C336.579 595.451 337.091 595.323 337.56 595.408C338.029 595.451 338.413 595.643 338.712 595.984C339.053 596.283 339.267 596.667 339.352 597.136C339.437 597.563 339.395 598.011 339.224 598.48C339.096 598.949 338.797 599.333 338.328 599.632C336.963 600.656 335.469 601.403 333.848 601.872C332.227 602.341 330.669 602.576 329.176 602.576ZM355.092 602.576C352.959 602.576 351.017 602.149 349.268 601.296C347.561 600.443 346.217 599.291 345.236 597.84C344.297 596.389 343.828 594.768 343.828 592.976C343.828 590.672 344.404 588.859 345.556 587.536C346.708 586.213 348.649 585.275 351.38 584.72C354.111 584.123 357.78 583.824 362.388 583.824H365.396V587.536H362.516C359.231 587.536 356.628 587.685 354.708 587.984C352.831 588.283 351.508 588.816 350.74 589.584C349.972 590.309 349.588 591.333 349.588 592.656C349.588 594.32 350.164 595.685 351.316 596.752C352.511 597.819 354.132 598.352 356.18 598.352C357.801 598.352 359.231 597.968 360.468 597.2C361.705 596.389 362.687 595.323 363.412 594C364.137 592.635 364.5 591.077 364.5 589.328V581.968C364.5 579.451 363.988 577.637 362.964 576.528C361.94 575.376 360.212 574.8 357.78 574.8C356.372 574.8 354.921 574.992 353.428 575.376C351.935 575.76 350.377 576.357 348.756 577.168C348.116 577.467 347.561 577.573 347.092 577.488C346.623 577.36 346.239 577.104 345.94 576.72C345.684 576.293 345.535 575.845 345.492 575.376C345.492 574.864 345.599 574.373 345.812 573.904C346.068 573.435 346.495 573.093 347.092 572.88C348.969 571.941 350.825 571.28 352.66 570.896C354.537 570.469 356.287 570.256 357.908 570.256C360.681 570.256 362.964 570.704 364.756 571.6C366.548 572.453 367.892 573.797 368.788 575.632C369.684 577.424 370.132 579.728 370.132 582.544V599.44C370.132 600.421 369.897 601.168 369.428 601.68C368.959 602.192 368.276 602.448 367.38 602.448C366.527 602.448 365.844 602.192 365.332 601.68C364.863 601.168 364.628 600.421 364.628 599.44V594.896H365.204C364.863 596.475 364.223 597.84 363.284 598.992C362.345 600.144 361.172 601.04 359.764 601.68C358.399 602.277 356.841 602.576 355.092 602.576ZM382.177 602.448C381.281 602.448 380.577 602.192 380.065 601.68C379.553 601.168 379.297 600.421 379.297 599.44V573.328C379.297 572.347 379.553 571.621 380.065 571.152C380.577 570.64 381.281 570.384 382.177 570.384C383.073 570.384 383.756 570.64 384.225 571.152C384.737 571.621 384.993 572.347 384.993 573.328V578.576L384.289 577.616C385.185 575.184 386.636 573.349 388.641 572.112C390.689 570.875 393.014 570.256 395.617 570.256C398.134 570.256 400.204 570.704 401.825 571.6C403.446 572.496 404.662 573.861 405.473 575.696C406.284 577.531 406.689 579.856 406.689 582.672V599.44C406.689 600.421 406.433 601.168 405.921 601.68C405.452 602.192 404.748 602.448 403.809 602.448C402.87 602.448 402.145 602.192 401.633 601.68C401.121 601.168 400.865 600.421 400.865 599.44V582.992C400.865 580.219 400.332 578.192 399.265 576.912C398.198 575.632 396.492 574.992 394.145 574.992C391.414 574.992 389.217 575.845 387.553 577.552C385.932 579.216 385.121 581.477 385.121 584.336V599.44C385.121 601.445 384.14 602.448 382.177 602.448ZM428.85 602.576C426.333 602.576 424.221 602.128 422.514 601.232C420.85 600.336 419.591 599.035 418.738 597.328C417.927 595.621 417.522 593.531 417.522 591.056V575.312H413.426C412.658 575.312 412.061 575.12 411.634 574.736C411.207 574.309 410.994 573.755 410.994 573.072C410.994 572.347 411.207 571.792 411.634 571.408C412.061 571.024 412.658 570.832 413.426 570.832H417.522V563.856C417.522 562.875 417.778 562.149 418.29 561.68C418.802 561.168 419.527 560.912 420.466 560.912C421.405 560.912 422.109 561.168 422.578 561.68C423.09 562.149 423.346 562.875 423.346 563.856V570.832H431.09C431.901 570.832 432.519 571.024 432.946 571.408C433.373 571.792 433.586 572.347 433.586 573.072C433.586 573.755 433.373 574.309 432.946 574.736C432.519 575.12 431.901 575.312 431.09 575.312H423.346V590.544C423.346 592.891 423.837 594.661 424.818 595.856C425.799 597.051 427.421 597.648 429.682 597.648C430.493 597.648 431.175 597.584 431.73 597.456C432.285 597.285 432.775 597.2 433.202 597.2C433.586 597.157 433.906 597.285 434.162 597.584C434.461 597.883 434.61 598.437 434.61 599.248C434.61 599.845 434.503 600.4 434.29 600.912C434.119 601.381 433.757 601.701 433.202 601.872C432.69 602.043 432.007 602.192 431.154 602.32C430.301 602.491 429.533 602.576 428.85 602.576ZM471.867 602.576C469.051 602.576 466.64 601.872 464.635 600.464C462.63 599.056 461.286 597.157 460.603 594.768L461.307 593.808V599.44C461.307 600.421 461.051 601.168 460.539 601.68C460.07 602.192 459.366 602.448 458.427 602.448C457.531 602.448 456.827 602.192 456.315 601.68C455.803 601.168 455.547 600.421 455.547 599.44V559.376C455.547 558.395 455.803 557.669 456.315 557.2C456.827 556.688 457.531 556.432 458.427 556.432C459.366 556.432 460.091 556.688 460.603 557.2C461.115 557.669 461.371 558.395 461.371 559.376V577.872H460.667C461.35 575.568 462.694 573.733 464.699 572.368C466.704 570.96 469.094 570.256 471.867 570.256C474.64 570.256 477.051 570.917 479.099 572.24C481.19 573.52 482.79 575.376 483.899 577.808C485.051 580.197 485.627 583.056 485.627 586.384C485.627 589.669 485.051 592.549 483.899 595.024C482.747 597.456 481.147 599.333 479.099 600.656C477.051 601.936 474.64 602.576 471.867 602.576ZM470.523 597.968C472.358 597.968 473.958 597.52 475.323 596.624C476.731 595.728 477.819 594.427 478.587 592.72C479.355 591.013 479.739 588.901 479.739 586.384C479.739 582.629 478.907 579.771 477.243 577.808C475.579 575.845 473.339 574.864 470.523 574.864C468.646 574.864 467.003 575.312 465.595 576.208C464.23 577.061 463.163 578.341 462.395 580.048C461.67 581.755 461.307 583.867 461.307 586.384C461.307 590.139 462.139 593.019 463.803 595.024C465.467 596.987 467.707 597.968 470.523 597.968ZM507.51 602.576C504.139 602.576 501.238 601.936 498.806 600.656C496.416 599.333 494.56 597.477 493.238 595.088C491.915 592.656 491.254 589.797 491.254 586.512C491.254 583.269 491.894 580.432 493.174 578C494.496 575.568 496.288 573.669 498.55 572.304C500.854 570.939 503.478 570.256 506.422 570.256C508.512 570.256 510.39 570.619 512.054 571.344C513.76 572.027 515.211 573.029 516.406 574.352C517.6 575.675 518.496 577.296 519.094 579.216C519.734 581.093 520.054 583.227 520.054 585.616C520.054 586.299 519.84 586.832 519.414 587.216C519.03 587.557 518.454 587.728 517.686 587.728H495.798V584.016H516.214L515.126 584.912C515.126 582.693 514.784 580.816 514.102 579.28C513.462 577.701 512.502 576.507 511.222 575.696C509.984 574.885 508.427 574.48 506.55 574.48C504.502 574.48 502.752 574.971 501.302 575.952C499.851 576.891 498.742 578.235 497.974 579.984C497.206 581.691 496.822 583.675 496.822 585.936V586.32C496.822 590.16 497.739 593.061 499.574 595.024C501.408 596.987 504.054 597.968 507.51 597.968C508.875 597.968 510.262 597.797 511.67 597.456C513.12 597.115 514.507 596.496 515.83 595.6C516.47 595.216 517.046 595.045 517.558 595.088C518.112 595.088 518.56 595.259 518.902 595.6C519.243 595.899 519.456 596.283 519.542 596.752C519.627 597.179 519.563 597.648 519.35 598.16C519.136 598.672 518.731 599.12 518.134 599.504C516.726 600.485 515.04 601.253 513.078 601.808C511.158 602.32 509.302 602.576 507.51 602.576ZM553.777 602.576C550.577 602.576 548.145 601.637 546.481 599.76C544.817 597.84 543.985 595.088 543.985 591.504V559.376C543.985 558.395 544.241 557.669 544.753 557.2C545.265 556.688 545.969 556.432 546.865 556.432C547.803 556.432 548.529 556.688 549.041 557.2C549.553 557.669 549.809 558.395 549.809 559.376V591.056C549.809 593.275 550.257 594.939 551.153 596.048C552.091 597.115 553.414 597.648 555.121 597.648C555.505 597.648 555.846 597.648 556.145 597.648C556.443 597.605 556.742 597.563 557.041 597.52C557.51 597.477 557.851 597.605 558.065 597.904C558.278 598.203 558.385 598.8 558.385 599.696C558.385 600.507 558.193 601.147 557.809 601.616C557.467 602.043 556.891 602.32 556.081 602.448C555.697 602.491 555.313 602.512 554.929 602.512C554.545 602.555 554.161 602.576 553.777 602.576ZM576.17 602.576C573.098 602.576 570.431 601.915 568.17 600.592C565.909 599.269 564.159 597.392 562.922 594.96C561.685 592.528 561.066 589.669 561.066 586.384C561.066 583.909 561.407 581.691 562.09 579.728C562.815 577.723 563.839 576.016 565.162 574.608C566.485 573.2 568.063 572.133 569.898 571.408C571.775 570.64 573.866 570.256 576.17 570.256C579.242 570.256 581.909 570.917 584.17 572.24C586.431 573.563 588.181 575.44 589.418 577.872C590.655 580.261 591.274 583.099 591.274 586.384C591.274 588.859 590.911 591.099 590.186 593.104C589.503 595.109 588.501 596.816 587.178 598.224C585.855 599.632 584.255 600.72 582.378 601.488C580.543 602.213 578.474 602.576 576.17 602.576ZM576.17 597.968C578.047 597.968 579.669 597.52 581.034 596.624C582.442 595.728 583.509 594.427 584.234 592.72C585.002 591.013 585.386 588.901 585.386 586.384C585.386 582.629 584.554 579.771 582.89 577.808C581.226 575.845 578.986 574.864 576.17 574.864C574.335 574.864 572.714 575.312 571.306 576.208C569.941 577.061 568.874 578.341 568.106 580.048C567.338 581.755 566.954 583.867 566.954 586.384C566.954 590.139 567.786 593.019 569.45 595.024C571.157 596.987 573.397 597.968 576.17 597.968ZM608.655 602.576C606.521 602.576 604.58 602.149 602.831 601.296C601.124 600.443 599.78 599.291 598.799 597.84C597.86 596.389 597.391 594.768 597.391 592.976C597.391 590.672 597.967 588.859 599.119 587.536C600.271 586.213 602.212 585.275 604.943 584.72C607.673 584.123 611.343 583.824 615.951 583.824H618.959V587.536H616.079C612.793 587.536 610.191 587.685 608.271 587.984C606.393 588.283 605.071 588.816 604.303 589.584C603.535 590.309 603.151 591.333 603.151 592.656C603.151 594.32 603.727 595.685 604.879 596.752C606.073 597.819 607.695 598.352 609.743 598.352C611.364 598.352 612.793 597.968 614.031 597.2C615.268 596.389 616.249 595.323 616.975 594C617.7 592.635 618.063 591.077 618.063 589.328V581.968C618.063 579.451 617.551 577.637 616.527 576.528C615.503 575.376 613.775 574.8 611.343 574.8C609.935 574.8 608.484 574.992 606.991 575.376C605.497 575.76 603.94 576.357 602.319 577.168C601.679 577.467 601.124 577.573 600.655 577.488C600.185 577.36 599.801 577.104 599.503 576.72C599.247 576.293 599.097 575.845 599.055 575.376C599.055 574.864 599.161 574.373 599.375 573.904C599.631 573.435 600.057 573.093 600.655 572.88C602.532 571.941 604.388 571.28 606.223 570.896C608.1 570.469 609.849 570.256 611.471 570.256C614.244 570.256 616.527 570.704 618.319 571.6C620.111 572.453 621.455 573.797 622.351 575.632C623.247 577.424 623.695 579.728 623.695 582.544V599.44C623.695 600.421 623.46 601.168 622.991 601.68C622.521 602.192 621.839 602.448 620.943 602.448C620.089 602.448 619.407 602.192 618.895 601.68C618.425 601.168 618.191 600.421 618.191 599.44V594.896H618.767C618.425 596.475 617.785 597.84 616.847 598.992C615.908 600.144 614.735 601.04 613.327 601.68C611.961 602.277 610.404 602.576 608.655 602.576ZM644.764 602.576C642.033 602.576 639.622 601.936 637.532 600.656C635.484 599.333 633.884 597.456 632.732 595.024C631.58 592.549 631.004 589.669 631.004 586.384C631.004 583.056 631.558 580.197 632.668 577.808C633.82 575.376 635.42 573.52 637.468 572.24C639.558 570.917 641.99 570.256 644.764 570.256C647.537 570.256 649.926 570.96 651.932 572.368C653.937 573.733 655.281 575.568 655.964 577.872H655.26V559.376C655.26 558.395 655.494 557.669 655.964 557.2C656.476 556.688 657.201 556.432 658.14 556.432C659.078 556.432 659.804 556.688 660.316 557.2C660.828 557.669 661.083 558.395 661.083 559.376V599.44C661.083 600.421 660.828 601.168 660.316 601.68C659.804 602.192 659.078 602.448 658.14 602.448C657.244 602.448 656.54 602.192 656.028 601.68C655.516 601.168 655.26 600.421 655.26 599.44V593.616L655.964 594.768C655.324 597.157 653.98 599.056 651.932 600.464C649.926 601.872 647.537 602.576 644.764 602.576ZM646.108 597.968C647.985 597.968 649.606 597.52 650.972 596.624C652.38 595.728 653.446 594.427 654.172 592.72C654.94 591.013 655.324 588.901 655.324 586.384C655.324 582.629 654.492 579.771 652.828 577.808C651.164 575.845 648.924 574.864 646.108 574.864C644.273 574.864 642.652 575.312 641.244 576.208C639.878 577.061 638.812 578.341 638.044 580.048C637.276 581.755 636.892 583.867 636.892 586.384C636.892 590.139 637.724 593.019 639.388 595.024C641.094 596.987 643.334 597.968 646.108 597.968ZM684.822 602.576C681.451 602.576 678.55 601.936 676.118 600.656C673.729 599.333 671.873 597.477 670.55 595.088C669.227 592.656 668.566 589.797 668.566 586.512C668.566 583.269 669.206 580.432 670.486 578C671.809 575.568 673.601 573.669 675.862 572.304C678.166 570.939 680.79 570.256 683.734 570.256C685.825 570.256 687.702 570.619 689.366 571.344C691.073 572.027 692.523 573.029 693.718 574.352C694.913 575.675 695.809 577.296 696.406 579.216C697.046 581.093 697.366 583.227 697.366 585.616C697.366 586.299 697.153 586.832 696.726 587.216C696.342 587.557 695.766 587.728 694.998 587.728H673.11V584.016H693.526L692.438 584.912C692.438 582.693 692.097 580.816 691.414 579.28C690.774 577.701 689.814 576.507 688.534 575.696C687.297 574.885 685.739 574.48 683.862 574.48C681.814 574.48 680.065 574.971 678.614 575.952C677.163 576.891 676.054 578.235 675.286 579.984C674.518 581.691 674.134 583.675 674.134 585.936V586.32C674.134 590.16 675.051 593.061 676.886 595.024C678.721 596.987 681.366 597.968 684.822 597.968C686.187 597.968 687.574 597.797 688.982 597.456C690.433 597.115 691.819 596.496 693.142 595.6C693.782 595.216 694.358 595.045 694.87 595.088C695.425 595.088 695.873 595.259 696.214 595.6C696.555 595.899 696.769 596.283 696.854 596.752C696.939 597.179 696.875 597.648 696.662 598.16C696.449 598.672 696.043 599.12 695.446 599.504C694.038 600.485 692.353 601.253 690.39 601.808C688.47 602.32 686.614 602.576 684.822 602.576ZM716.514 602.576C713.783 602.576 711.372 601.936 709.282 600.656C707.234 599.333 705.634 597.456 704.482 595.024C703.33 592.549 702.754 589.669 702.754 586.384C702.754 583.056 703.308 580.197 704.418 577.808C705.57 575.376 707.17 573.52 709.218 572.24C711.308 570.917 713.74 570.256 716.514 570.256C719.287 570.256 721.676 570.96 723.682 572.368C725.687 573.733 727.031 575.568 727.714 577.872H727.01V559.376C727.01 558.395 727.244 557.669 727.714 557.2C728.226 556.688 728.951 556.432 729.89 556.432C730.828 556.432 731.554 556.688 732.066 557.2C732.578 557.669 732.833 558.395 732.833 559.376V599.44C732.833 600.421 732.578 601.168 732.066 601.68C731.554 602.192 730.828 602.448 729.89 602.448C728.994 602.448 728.29 602.192 727.778 601.68C727.266 601.168 727.01 600.421 727.01 599.44V593.616L727.714 594.768C727.074 597.157 725.73 599.056 723.682 600.464C721.676 601.872 719.287 602.576 716.514 602.576ZM717.858 597.968C719.735 597.968 721.356 597.52 722.722 596.624C724.13 595.728 725.196 594.427 725.922 592.72C726.69 591.013 727.074 588.901 727.074 586.384C727.074 582.629 726.242 579.771 724.578 577.808C722.914 575.845 720.674 574.864 717.858 574.864C716.023 574.864 714.402 575.312 712.994 576.208C711.628 577.061 710.562 578.341 709.794 580.048C709.026 581.755 708.642 583.867 708.642 586.384C708.642 590.139 709.474 593.019 711.138 595.024C712.844 596.987 715.084 597.968 717.858 597.968ZM744.988 602.256C743.879 602.256 742.961 601.893 742.236 601.168C741.511 600.443 741.148 599.525 741.148 598.416C741.148 597.307 741.511 596.411 742.236 595.728C742.961 595.045 743.879 594.704 744.988 594.704C746.183 594.704 747.1 595.045 747.74 595.728C748.423 596.411 748.764 597.307 748.764 598.416C748.764 599.525 748.423 600.443 747.74 601.168C747.1 601.893 746.183 602.256 744.988 602.256Z" fill="white"/>
</svg>
