<svg width="853" height="288" viewBox="0 0 853 288" fill="none" xmlns="http://www.w3.org/2000/svg">
<rect width="853" height="288" fill="#FF8CF5"/>
<mask id="mask0_85_2" style="mask-type:alpha" maskUnits="userSpaceOnUse" x="0" y="0" width="853" height="288">
<rect width="853" height="288" fill="#00D181"/>
</mask>
<g mask="url(#mask0_85_2)">
<path d="M478.997 27.8365C466.854 25.6818 456.942 37.4951 461.172 49.0791L613.023 464.878C617.246 476.44 632.397 479.103 640.309 469.674L924.309 131.216C932.221 121.787 926.968 107.328 914.848 105.178L478.997 27.8365Z" stroke="#FFB5F9" stroke-width="12"/>
<path d="M487.024 63.0101C484.379 55.7702 490.575 48.3869 498.164 49.7335L882.711 117.971C890.286 119.315 893.57 128.352 888.624 134.245L638.054 432.863C633.109 438.757 623.639 437.092 621 429.866L487.024 63.0101Z" fill="#FFB5F9"/>
<path d="M153.16 188.632L155.618 193.919L153.16 188.632C141.977 193.831 140.633 209.194 150.743 216.256L377.032 374.339C387.123 381.388 401.061 374.879 402.134 362.617L426.147 88.1479C427.22 75.8856 414.623 67.0552 403.462 72.245L153.16 188.632Z" stroke="#FFB5F9" stroke-width="12"/>
<path d="M170.928 212.316C164.609 207.902 165.449 198.3 172.438 195.05L391.986 92.964C398.962 89.7203 406.835 95.2393 406.164 102.903L385.102 343.649C384.431 351.313 375.72 355.381 369.413 350.975L170.928 212.316Z" fill="#FFB5F9"/>
</g>
</svg>
