<svg width="853" height="288" viewBox="0 0 853 288" fill="none" xmlns="http://www.w3.org/2000/svg">
<rect width="853" height="288" fill="#00D1FF"/>
<mask id="mask0_85_2" style="mask-type:alpha" maskUnits="userSpaceOnUse" x="0" y="0" width="853" height="288">
<rect width="853" height="288" fill="#00D181"/>
</mask>
<g mask="url(#mask0_85_2)">
<path d="M914.848 105.178L478.997 27.8365C466.854 25.6818 456.942 37.4951 461.172 49.0791L613.023 464.878C617.246 476.44 632.397 479.103 640.309 469.674L924.309 131.216C932.221 121.787 926.968 107.328 914.848 105.178Z" stroke="#68E4FF" stroke-width="12"/>
<path d="M487.024 63.0101C484.379 55.7701 490.575 48.3868 498.164 49.7335L882.711 117.971C890.286 119.315 893.57 128.352 888.624 134.245L638.054 432.863C633.109 438.757 623.639 437.092 621 429.866L487.024 63.0101Z" fill="#68E4FF"/>
<path d="M403.462 72.2451L153.16 188.632C141.977 193.831 140.633 209.194 150.743 216.256L377.032 374.339C387.123 381.388 401.061 374.879 402.134 362.617L426.147 88.1479C427.22 75.8857 414.623 67.0552 403.462 72.2451Z" stroke="#68E4FF" stroke-width="12"/>
<path d="M170.928 212.316C164.609 207.902 165.449 198.3 172.438 195.05L391.986 92.964C398.962 89.7203 406.835 95.2394 406.164 102.903L385.102 343.649C384.431 351.313 375.72 355.381 369.413 350.975L170.928 212.316Z" fill="#68E4FF"/>
<path d="M522.056 183.648L514.376 187.29C514.416 187.374 514.457 187.458 514.5 187.541L522.056 183.648ZM494.92 126.432L487.229 130.051C487.233 130.059 487.236 130.067 487.24 130.074L494.92 126.432ZM494.664 122.208L486.804 118.972C486.77 119.055 486.737 119.139 486.705 119.223L494.664 122.208ZM497.992 118.88L501.631 126.562C501.745 126.508 501.858 126.451 501.969 126.392L497.992 118.88ZM502.344 118.496L499.515 126.511C499.562 126.528 499.609 126.544 499.656 126.56L502.344 118.496ZM505.8 121.44L513.511 117.864C513.448 117.729 513.382 117.595 513.312 117.463L505.8 121.44ZM531.144 176.096V184.596C534.045 184.596 536.746 183.116 538.308 180.671C539.869 178.225 540.076 175.152 538.855 172.52L531.144 176.096ZM525 176.096L517.275 172.55C516.067 175.182 516.282 178.247 517.845 180.685C519.408 183.122 522.104 184.596 525 184.596V176.096ZM550.088 121.44L542.576 117.463C542.501 117.605 542.43 117.748 542.363 117.894L550.088 121.44ZM553.544 118.496L550.984 110.391C550.942 110.404 550.899 110.418 550.856 110.432L553.544 118.496ZM558.408 118.88L554.769 126.562C554.831 126.591 554.893 126.62 554.956 126.647L558.408 118.88ZM561.48 122.08L569.495 119.251L569.495 119.251L561.48 122.08ZM561.224 126.432L568.904 130.074C568.908 130.067 568.911 130.059 568.915 130.051L561.224 126.432ZM534.088 183.648L526.408 180.006C526.388 180.047 526.369 180.089 526.35 180.131L534.088 183.648ZM528.2 179.372C528.3 179.372 528.504 179.387 528.77 179.466C529.041 179.548 529.291 179.671 529.495 179.812C529.903 180.092 529.867 180.25 529.612 179.755L514.5 187.541C517.06 192.511 521.678 196.372 528.2 196.372V179.372ZM529.736 180.006L502.6 122.79L487.24 130.074L514.376 187.29L529.736 180.006ZM502.611 122.813C502.666 122.93 502.798 123.265 502.828 123.774C502.86 124.3 502.771 124.797 502.623 125.193L486.705 119.223C485.304 122.961 485.677 126.753 487.229 130.051L502.611 122.813ZM502.524 125.444C502.395 125.757 502.193 126.06 501.954 126.298C501.729 126.524 501.576 126.588 501.631 126.562L494.353 111.198C491.115 112.732 488.322 115.285 486.804 118.972L502.524 125.444ZM501.969 126.392C501.819 126.471 501.454 126.628 500.915 126.675C500.362 126.724 499.87 126.637 499.515 126.511L505.173 110.481C501.32 109.121 497.407 109.572 494.015 111.368L501.969 126.392ZM499.656 126.56C499.462 126.495 499.159 126.352 498.848 126.087C498.539 125.823 498.364 125.561 498.288 125.417L513.312 117.463C511.537 114.11 508.673 111.646 505.032 110.432L499.656 126.56ZM498.089 125.016L523.433 179.672L538.855 172.52L513.511 117.864L498.089 125.016ZM531.144 167.596H525V184.596H531.144V167.596ZM532.725 179.642L557.813 124.986L542.363 117.894L517.275 172.55L532.725 179.642ZM557.6 125.417C557.524 125.561 557.349 125.823 557.04 126.087C556.729 126.352 556.426 126.495 556.232 126.56L550.856 110.432C547.215 111.646 544.351 114.11 542.576 117.463L557.6 125.417ZM556.104 126.601C555.92 126.659 555.635 126.708 555.307 126.682C554.987 126.656 554.796 126.574 554.769 126.562L562.047 111.198C558.604 109.568 554.772 109.194 550.984 110.391L556.104 126.601ZM554.956 126.647C554.854 126.602 554.544 126.441 554.196 126.079C553.836 125.703 553.595 125.278 553.465 124.909L569.495 119.251C568.129 115.38 565.312 112.647 561.86 111.113L554.956 126.647ZM553.465 124.909C553.366 124.631 553.287 124.226 553.315 123.757C553.342 123.295 553.461 122.966 553.533 122.813L568.915 130.051C570.505 126.672 570.786 122.907 569.495 119.251L553.465 124.909ZM553.544 122.79L526.408 180.006L541.768 187.29L568.904 130.074L553.544 122.79ZM526.35 180.131C526.156 180.557 526.181 180.283 526.701 179.909C526.96 179.724 527.261 179.574 527.572 179.479C527.876 179.386 528.101 179.372 528.2 179.372V196.372C531.122 196.372 534.047 195.562 536.611 193.723C539.094 191.941 540.74 189.555 541.826 187.165L526.35 180.131ZM591.413 103.392H599.913C599.913 100.54 598.482 97.8777 596.104 96.3036C593.725 94.7295 590.716 94.4534 588.091 95.5682L591.413 103.392ZM582.069 107.36L585.305 115.22C585.334 115.208 585.363 115.196 585.391 115.184L582.069 107.36ZM573.237 106.464L567.227 112.474C567.296 112.543 567.366 112.611 567.437 112.678L573.237 106.464ZM575.669 95.712L578.498 103.727C578.512 103.722 578.527 103.717 578.541 103.712L575.669 95.712ZM595.637 88.544L598.509 96.5442C598.604 96.5098 598.7 96.4738 598.794 96.436L595.637 88.544ZM602.677 89.952L596.254 95.5189C596.386 95.6716 596.524 95.8195 596.667 95.9624L602.677 89.952ZM602.549 186.08L608.559 192.09L608.559 192.09L602.549 186.08ZM597.813 179.5C598.052 179.5 598.397 179.551 598.761 179.707C599.116 179.859 599.306 180.032 599.343 180.07L587.323 192.09C590.089 194.857 593.705 196.5 597.813 196.5V179.5ZM599.343 180.07C599.419 180.145 599.596 180.355 599.739 180.699C599.883 181.044 599.913 181.333 599.913 181.472H582.913C582.913 185.544 584.467 189.235 587.323 192.09L599.343 180.07ZM599.913 181.472V103.392H582.913V181.472H599.913ZM588.091 95.5682L578.747 99.5362L585.391 115.184L594.735 111.216L588.091 95.5682ZM578.833 99.5002C578.183 99.7675 577.923 99.756 577.973 99.756V116.756C580.583 116.756 583.053 116.147 585.305 115.22L578.833 99.5002ZM577.973 99.756C577.947 99.756 578.115 99.7545 578.389 99.8581C578.673 99.9655 578.899 100.121 579.037 100.25L567.437 112.678C570.411 115.454 574.113 116.756 577.973 116.756V99.756ZM579.247 100.454C579.462 100.668 579.676 100.977 579.815 101.335C579.948 101.676 579.945 101.886 579.945 101.856H562.945C562.945 105.713 564.254 109.502 567.227 112.474L579.247 100.454ZM579.945 101.856C579.945 101.889 579.94 102.001 579.895 102.164C579.849 102.33 579.781 102.481 579.708 102.599L565.23 93.6892C563.682 96.2042 562.945 98.997 562.945 101.856H579.945ZM579.708 102.599C579.484 102.963 579.202 103.26 578.924 103.471C578.66 103.672 578.483 103.733 578.498 103.727L572.84 87.6966C569.902 88.7336 567.109 90.6354 565.23 93.6892L579.708 102.599ZM578.541 103.712L598.509 96.5442L592.765 80.5438L572.797 87.7118L578.541 103.712ZM598.794 96.436C598.765 96.4475 598.694 96.4729 598.584 96.4949L595.25 79.8251C594.287 80.0177 593.362 80.2992 592.48 80.652L598.794 96.436ZM598.584 96.4949C598.584 96.4949 598.581 96.4954 598.577 96.4963C598.572 96.4972 598.564 96.4984 598.555 96.5C598.535 96.503 598.505 96.5074 598.464 96.512C598.384 96.5209 598.25 96.532 598.069 96.532V79.532C597.04 79.532 596.084 79.6583 595.25 79.8251L598.584 96.4949ZM598.069 96.532C598.126 96.532 597.86 96.54 597.424 96.3582C596.956 96.1632 596.544 95.8539 596.254 95.5189L609.1 84.3851C606.113 80.9379 602.063 79.532 598.069 79.532V96.532ZM596.667 95.9624C596.413 95.7086 596.199 95.3788 596.071 95.0401C595.952 94.7255 595.969 94.5698 595.969 94.688H612.969C612.969 90.865 611.735 86.9889 608.687 83.9416L596.667 95.9624ZM595.969 94.688V181.472H612.969V94.688H595.969ZM595.969 181.472C595.969 181.333 595.999 181.044 596.143 180.699C596.286 180.355 596.463 180.145 596.539 180.07L608.559 192.09C611.415 189.235 612.969 185.544 612.969 181.472H595.969ZM596.539 180.07C596.652 179.956 596.881 179.777 597.212 179.643C597.535 179.511 597.769 179.5 597.813 179.5V196.5C601.851 196.5 605.621 195.029 608.559 192.09L596.539 180.07ZM641.407 182.112L635.767 188.472C635.81 188.509 635.852 188.546 635.895 188.583L641.407 182.112ZM631.039 164.96L622.939 167.537C622.942 167.546 622.945 167.555 622.948 167.564L631.039 164.96ZM631.039 111.072L639.13 113.676C639.133 113.667 639.136 113.658 639.139 113.649L631.039 111.072ZM641.407 93.92L646.979 100.339L646.987 100.332L641.407 93.92ZM674.559 94.048L668.853 100.348C668.895 100.386 668.936 100.423 668.979 100.46L674.559 94.048ZM685.055 111.328L676.955 113.905C676.958 113.914 676.961 113.923 676.964 113.932L685.055 111.328ZM685.055 164.704L693.146 167.308C693.149 167.299 693.152 167.29 693.155 167.281L685.055 164.704ZM674.559 181.984L680.199 188.344L680.206 188.337L674.559 181.984ZM667.775 169.952L674.377 175.305C674.401 175.277 674.424 175.248 674.446 175.219L667.775 169.952ZM673.535 156.768L681.817 158.679L681.817 158.679L673.535 156.768ZM673.535 119.136L681.817 117.225L681.817 117.225L673.535 119.136ZM648.319 105.952L654.921 111.305C654.945 111.277 654.968 111.248 654.99 111.219L648.319 105.952ZM642.559 119.008L634.277 117.097L642.559 119.008ZM648.319 169.952L641.717 175.305C641.745 175.341 641.774 175.376 641.804 175.411L648.319 169.952ZM658.047 179.5C653.426 179.5 649.875 178.159 646.919 175.641L635.895 188.583C642.155 193.916 649.697 196.5 658.047 196.5V179.5ZM647.047 175.752C643.948 173.004 641.186 168.743 639.13 162.356L622.948 167.564C625.671 176.025 629.821 183.198 635.767 188.472L647.047 175.752ZM639.139 162.383C637.086 155.931 635.955 147.845 635.955 137.952H618.955C618.955 149.051 620.213 158.97 622.939 167.537L639.139 162.383ZM635.955 137.952C635.955 128.055 637.087 120.025 639.13 113.676L622.948 108.468C620.212 116.967 618.955 126.857 618.955 137.952H635.955ZM639.139 113.649C641.201 107.17 643.953 102.965 646.979 100.339L635.835 87.5006C629.816 92.7254 625.656 99.9557 622.939 108.495L639.139 113.649ZM646.987 100.332C649.948 97.7551 653.476 96.404 658.047 96.404V79.404C649.648 79.404 642.082 82.0635 635.827 87.5084L646.987 100.332ZM658.047 96.404C662.568 96.404 665.998 97.7623 668.853 100.348L680.265 87.7478C674.075 82.1417 666.496 79.404 658.047 79.404V96.404ZM668.979 100.46C672.116 103.191 674.904 107.458 676.955 113.905L693.155 108.751C690.428 100.18 686.218 92.9268 680.139 87.6364L668.979 100.46ZM676.964 113.932C679.011 120.292 680.139 128.242 680.139 137.952H697.139C697.139 127.011 695.878 117.212 693.146 108.724L676.964 113.932ZM680.139 137.952C680.139 147.658 679.012 155.663 676.955 162.127L693.155 167.281C695.877 158.726 697.139 148.897 697.139 137.952H680.139ZM676.964 162.1C674.918 168.456 672.121 172.778 668.912 175.631L680.206 188.337C686.213 182.998 690.413 175.8 693.146 167.308L676.964 162.1ZM668.919 175.624C666.071 178.151 662.619 179.5 658.047 179.5V196.5C666.446 196.5 674.002 193.839 680.199 188.344L668.919 175.624ZM658.047 183.188C664.638 183.188 670.27 180.371 674.377 175.305L661.173 164.599C660.16 165.847 659.306 166.188 658.047 166.188V183.188ZM674.446 175.219C678.021 170.691 680.355 165.014 681.817 158.679L665.253 154.857C664.155 159.615 662.649 162.727 661.103 164.685L674.446 175.219ZM681.817 158.679C683.27 152.382 683.955 145.452 683.955 137.952H666.955C666.955 144.446 666.36 150.06 665.253 154.857L681.817 158.679ZM683.955 137.952C683.955 130.452 683.27 123.522 681.817 117.225L665.253 121.047C666.36 125.844 666.955 131.458 666.955 137.952H683.955ZM681.817 117.225C680.355 110.89 678.021 105.213 674.446 100.685L661.103 111.219C662.649 113.177 664.155 116.289 665.253 121.047L681.817 117.225ZM674.446 100.685C670.373 95.5246 664.728 92.588 658.047 92.588V109.588C659.217 109.588 660.057 109.894 661.103 111.219L674.446 100.685ZM658.047 92.588C651.366 92.588 645.721 95.5246 641.647 100.685L654.99 111.219C656.037 109.894 656.877 109.588 658.047 109.588V92.588ZM641.717 100.599C638.083 105.08 635.738 110.763 634.277 117.097L650.841 120.919C651.94 116.159 653.435 113.139 654.921 111.305L641.717 100.599ZM634.277 117.097C632.822 123.4 632.139 130.375 632.139 137.952H649.139C649.139 131.364 649.736 125.709 650.841 120.919L634.277 117.097ZM632.139 137.952C632.139 145.529 632.822 152.504 634.277 158.807L650.841 154.985C649.736 150.195 649.139 144.54 649.139 137.952H632.139ZM634.277 158.807C635.738 165.141 638.083 170.824 641.717 175.305L654.921 164.599C653.435 162.765 651.94 159.745 650.841 154.985L634.277 158.807ZM641.804 175.411C645.93 180.336 651.491 183.188 658.047 183.188V166.188C656.923 166.188 655.998 165.882 654.834 164.493L641.804 175.411Z" fill="white"/>
<mask id="path-8-outside-1_85_2" maskUnits="userSpaceOnUse" x="489" y="82" width="205" height="111" fill="black">
<rect fill="white" x="489" y="82" width="205" height="111"/>
<path d="M528.2 187.872C525.555 187.872 523.507 186.464 522.056 183.648L494.92 126.432C494.237 124.981 494.152 123.573 494.664 122.208C495.261 120.757 496.371 119.648 497.992 118.88C499.443 118.112 500.893 117.984 502.344 118.496C503.88 119.008 505.032 119.989 505.8 121.44L531.144 176.096H525L550.088 121.44C550.856 119.989 552.008 119.008 553.544 118.496C555.165 117.984 556.787 118.112 558.408 118.88C559.944 119.563 560.968 120.629 561.48 122.08C561.992 123.531 561.907 124.981 561.224 126.432L534.088 183.648C532.808 186.464 530.845 187.872 528.2 187.872ZM597.813 188C596.106 188 594.613 187.36 593.333 186.08C592.053 184.8 591.413 183.264 591.413 181.472V103.392L582.069 107.36C580.618 107.957 579.253 108.256 577.973 108.256C576.096 108.256 574.517 107.659 573.237 106.464C572.042 105.269 571.445 103.733 571.445 101.856C571.445 100.491 571.786 99.2533 572.469 98.144C573.152 97.0347 574.218 96.224 575.669 95.712L595.637 88.544C596.064 88.3733 596.49 88.2453 596.917 88.16C597.344 88.0747 597.728 88.032 598.069 88.032C600.032 88.032 601.568 88.672 602.677 89.952C603.872 91.1467 604.469 92.7253 604.469 94.688V181.472C604.469 183.264 603.829 184.8 602.549 186.08C601.269 187.36 599.69 188 597.813 188ZM658.047 188C651.562 188 646.015 186.037 641.407 182.112C636.884 178.101 633.428 172.384 631.039 164.96C628.65 157.451 627.455 148.448 627.455 137.952C627.455 127.456 628.65 118.496 631.039 111.072C633.428 103.563 636.884 97.8453 641.407 93.92C646.015 89.9093 651.562 87.904 658.047 87.904C664.532 87.904 670.036 89.952 674.559 94.048C679.167 98.0587 682.666 103.819 685.055 111.328C687.444 118.752 688.639 127.627 688.639 137.952C688.639 148.277 687.444 157.195 685.055 164.704C682.666 172.128 679.167 177.888 674.559 181.984C670.036 185.995 664.532 188 658.047 188ZM658.047 174.688C661.972 174.688 665.215 173.109 667.775 169.952C670.335 166.709 672.255 162.315 673.535 156.768C674.815 151.221 675.455 144.949 675.455 137.952C675.455 130.955 674.815 124.683 673.535 119.136C672.255 113.589 670.335 109.195 667.775 105.952C665.215 102.709 661.972 101.088 658.047 101.088C654.122 101.088 650.879 102.709 648.319 105.952C645.759 109.109 643.839 113.461 642.559 119.008C641.279 124.555 640.639 130.869 640.639 137.952C640.639 145.035 641.279 151.349 642.559 156.896C643.839 162.443 645.759 166.795 648.319 169.952C650.964 173.109 654.207 174.688 658.047 174.688Z"/>
</mask>
<path d="M522.056 183.648L517.538 185.791L517.574 185.865L517.611 185.938L522.056 183.648ZM494.92 126.432L490.396 128.561L490.399 128.568L490.402 128.575L494.92 126.432ZM494.664 122.208L490.041 120.304L490.01 120.378L489.982 120.452L494.664 122.208ZM497.992 118.88L500.132 123.399L500.233 123.351L500.331 123.299L497.992 118.88ZM502.344 118.496L500.68 123.211L500.721 123.226L500.763 123.239L502.344 118.496ZM505.8 121.44L510.336 119.337L510.281 119.217L510.219 119.101L505.8 121.44ZM531.144 176.096V181.096H538.974L535.68 173.993L531.144 176.096ZM525 176.096L520.456 174.01L517.203 181.096H525V176.096ZM550.088 121.44L545.669 119.101L545.603 119.226L545.544 119.354L550.088 121.44ZM553.544 118.496L552.038 113.728L552.001 113.74L551.963 113.753L553.544 118.496ZM558.408 118.88L556.268 123.399L556.322 123.425L556.377 123.449L558.408 118.88ZM561.48 122.08L566.195 120.416L566.195 120.416L561.48 122.08ZM561.224 126.432L565.742 128.575L565.745 128.568L565.748 128.561L561.224 126.432ZM534.088 183.648L529.57 181.505L529.553 181.542L529.536 181.579L534.088 183.648ZM528.2 182.872C527.835 182.872 527.299 182.907 526.501 181.358L517.611 185.938C519.715 190.021 523.274 192.872 528.2 192.872V182.872ZM526.574 181.505L499.438 124.289L490.402 128.575L517.538 185.791L526.574 181.505ZM499.444 124.303C499.389 124.186 499.362 124.104 499.349 124.055C499.342 124.03 499.339 124.013 499.337 124.002C499.335 123.991 499.335 123.986 499.335 123.986C499.335 123.985 499.335 123.987 499.335 123.991C499.335 123.995 499.334 123.998 499.334 124C499.333 124.007 499.334 123.996 499.346 123.964L489.982 120.452C488.947 123.213 489.202 126.024 490.396 128.561L499.444 124.303ZM499.287 124.112C499.343 123.977 499.462 123.716 500.132 123.399L495.852 114.361C493.279 115.58 491.18 117.538 490.041 120.304L499.287 124.112ZM500.331 123.299C500.542 123.187 500.626 123.187 500.607 123.189C500.603 123.189 500.599 123.189 500.6 123.189C500.602 123.189 500.627 123.192 500.68 123.211L504.008 113.781C501.144 112.77 498.245 113.089 495.653 114.461L500.331 123.299ZM500.763 123.239C501.06 123.339 501.205 123.448 501.381 123.779L510.219 119.101C508.859 116.531 506.7 114.677 503.925 113.753L500.763 123.239ZM501.264 123.543L526.608 178.199L535.68 173.993L510.336 119.337L501.264 123.543ZM531.144 171.096H525V181.096H531.144V171.096ZM529.544 178.182L554.632 123.526L545.544 119.354L520.456 174.01L529.544 178.182ZM554.507 123.779C554.683 123.448 554.828 123.339 555.125 123.239L551.963 113.753C549.188 114.677 547.029 116.531 545.669 119.101L554.507 123.779ZM555.05 123.264C555.397 123.154 555.717 123.138 556.268 123.399L560.548 114.361C557.856 113.086 554.934 112.814 552.038 113.728L555.05 123.264ZM556.377 123.449C556.634 123.563 556.715 123.648 556.721 123.655C556.727 123.661 556.729 123.664 556.732 123.668C556.735 123.673 556.748 123.695 556.765 123.744L566.195 120.416C565.18 117.542 563.101 115.494 560.439 114.311L556.377 123.449ZM556.765 123.744C556.813 123.879 556.81 123.94 556.809 123.962C556.807 123.989 556.798 124.095 556.7 124.303L565.748 128.561C566.964 125.976 567.165 123.164 566.195 120.416L556.765 123.744ZM556.706 124.289L529.57 181.505L538.606 185.791L565.742 128.575L556.706 124.289ZM529.536 181.579C529.159 182.41 528.839 182.683 528.741 182.753C528.691 182.79 528.582 182.872 528.2 182.872V192.872C530.464 192.872 532.658 192.25 534.571 190.879C536.435 189.541 537.737 187.702 538.64 185.717L529.536 181.579ZM591.413 103.392H596.413V95.8366L589.459 98.7898L591.413 103.392ZM582.069 107.36L583.973 111.983L583.998 111.973L584.023 111.962L582.069 107.36ZM573.237 106.464L569.701 110L569.762 110.06L569.825 110.119L573.237 106.464ZM575.669 95.712L577.333 100.427L577.346 100.422L577.358 100.418L575.669 95.712ZM595.637 88.544L597.326 93.25L597.411 93.2197L597.494 93.1864L595.637 88.544ZM602.677 89.952L598.899 93.2267L599.015 93.3614L599.141 93.4875L602.677 89.952ZM602.549 186.08L606.085 189.616L606.085 189.616L602.549 186.08ZM597.813 183C597.519 183 597.274 182.95 596.869 182.544L589.797 189.616C591.952 191.77 594.694 193 597.813 193V183ZM596.869 182.544C596.516 182.191 596.413 181.923 596.413 181.472H586.413C586.413 184.605 587.59 187.409 589.797 189.616L596.869 182.544ZM596.413 181.472V103.392H586.413V181.472H596.413ZM589.459 98.7898L580.115 102.758L584.023 111.962L593.367 107.994L589.459 98.7898ZM580.165 102.737C579.186 103.14 578.471 103.256 577.973 103.256V113.256C580.035 113.256 582.051 112.775 583.973 111.983L580.165 102.737ZM577.973 103.256C577.262 103.256 576.932 103.073 576.649 102.809L569.825 110.119C572.102 112.244 574.929 113.256 577.973 113.256V103.256ZM576.773 102.928C576.624 102.78 576.445 102.569 576.445 101.856H566.445C566.445 104.898 567.461 107.759 569.701 110L576.773 102.928ZM576.445 101.856C576.445 101.369 576.553 101.047 576.727 100.764L568.211 95.5235C567.019 97.4597 566.445 99.6121 566.445 101.856H576.445ZM576.727 100.764C576.736 100.751 576.75 100.728 576.806 100.685C576.871 100.636 577.026 100.535 577.333 100.427L574.005 90.997C571.679 91.8179 569.597 93.2704 568.211 95.5235L576.727 100.764ZM577.358 100.418L597.326 93.25L593.948 83.838L573.98 91.006L577.358 100.418ZM597.494 93.1864C597.653 93.1228 597.787 93.0851 597.898 93.0629L595.936 83.2571C595.194 83.4056 594.474 83.6238 593.78 83.9016L597.494 93.1864ZM597.898 93.0629C597.986 93.0451 598.045 93.0369 598.077 93.0334C598.109 93.0299 598.105 93.032 598.069 93.032V83.032C597.323 83.032 596.603 83.1238 595.936 83.2571L597.898 93.0629ZM598.069 93.032C598.507 93.032 598.71 93.1026 598.77 93.1274C598.811 93.1445 598.841 93.1602 598.899 93.2267L606.455 86.6773C604.241 84.1225 601.227 83.032 598.069 83.032V93.032ZM599.141 93.4875C599.246 93.5924 599.469 93.8196 599.469 94.688H609.469C609.469 91.631 608.497 88.7009 606.213 86.4165L599.141 93.4875ZM599.469 94.688V181.472H609.469V94.688H599.469ZM599.469 181.472C599.469 181.923 599.366 182.191 599.013 182.544L606.085 189.616C608.292 187.409 609.469 184.605 609.469 181.472H599.469ZM599.013 182.544C598.709 182.849 598.419 183 597.813 183V193C600.961 193 603.829 191.871 606.085 189.616L599.013 182.544ZM641.407 182.112L638.09 185.853L638.127 185.886L638.165 185.918L641.407 182.112ZM631.039 164.96L626.274 166.476L626.277 166.484L626.279 166.492L631.039 164.96ZM631.039 111.072L635.799 112.604L635.801 112.596L635.804 112.588L631.039 111.072ZM641.407 93.92L644.684 97.6961L644.69 97.6915L641.407 93.92ZM674.559 94.048L671.203 97.754L671.239 97.7871L671.276 97.8195L674.559 94.048ZM685.055 111.328L680.29 112.844L680.293 112.852L680.295 112.86L685.055 111.328ZM685.055 164.704L689.815 166.236L689.817 166.228L689.82 166.22L685.055 164.704ZM674.559 181.984L677.876 185.725L677.881 185.721L674.559 181.984ZM667.775 169.952L671.659 173.101L671.679 173.076L671.699 173.05L667.775 169.952ZM673.535 156.768L678.407 157.892L678.407 157.892L673.535 156.768ZM673.535 119.136L678.407 118.012L678.407 118.012L673.535 119.136ZM648.319 105.952L652.203 109.101L652.223 109.076L652.243 109.05L648.319 105.952ZM642.559 119.008L637.687 117.884L642.559 119.008ZM648.319 169.952L644.435 173.101L644.461 173.132L644.486 173.163L648.319 169.952ZM658.047 183C652.658 183 648.285 181.403 644.649 178.306L638.165 185.918C643.745 190.672 650.465 193 658.047 193V183ZM644.724 178.371C641.039 175.103 637.992 170.242 635.799 163.428L626.279 166.492C628.865 174.526 632.729 181.1 638.09 185.853L644.724 178.371ZM635.804 163.444C633.612 156.557 632.455 148.093 632.455 137.952H622.455C622.455 148.803 623.687 158.345 626.274 166.476L635.804 163.444ZM632.455 137.952C632.455 127.808 633.613 119.395 635.799 112.604L626.279 109.54C623.686 117.597 622.455 127.104 622.455 137.952H632.455ZM635.804 112.588C638 105.684 641.042 100.857 644.684 97.6961L638.13 90.1439C632.726 94.8336 628.856 101.441 626.274 109.556L635.804 112.588ZM644.69 97.6915C648.328 94.5245 652.687 92.904 658.047 92.904V82.904C650.436 82.904 643.702 85.2942 638.124 90.1485L644.69 97.6915ZM658.047 92.904C663.377 92.904 667.661 94.5463 671.203 97.754L677.915 90.342C672.412 85.3577 665.688 82.904 658.047 82.904V92.904ZM671.276 97.8195C675.019 101.077 678.1 105.959 680.29 112.844L689.82 109.812C687.232 101.678 683.315 95.0399 677.842 90.2765L671.276 97.8195ZM680.295 112.86C682.483 119.658 683.639 127.989 683.639 137.952H693.639C693.639 127.265 692.405 117.846 689.815 109.796L680.295 112.86ZM683.639 137.952C683.639 147.913 682.484 156.294 680.29 163.188L689.82 166.22C692.405 158.095 693.639 148.642 693.639 137.952H683.639ZM680.295 163.172C678.108 169.968 675.022 174.882 671.237 178.247L677.881 185.721C683.312 180.894 687.223 174.288 689.815 166.236L680.295 163.172ZM671.242 178.243C667.704 181.381 663.407 183 658.047 183V193C665.658 193 672.369 190.609 677.876 185.725L671.242 178.243ZM658.047 179.688C663.541 179.688 668.188 177.381 671.659 173.101L663.891 166.803C662.242 168.838 660.404 169.688 658.047 169.688V179.688ZM671.699 173.05C674.856 169.052 677.02 163.903 678.407 157.892L668.663 155.644C667.49 160.727 665.814 164.367 663.851 166.854L671.699 173.05ZM678.407 157.892C679.789 151.904 680.455 145.245 680.455 137.952H670.455C670.455 144.654 669.841 150.538 668.663 155.644L678.407 157.892ZM680.455 137.952C680.455 130.659 679.789 124 678.407 118.012L668.663 120.26C669.841 125.366 670.455 131.25 670.455 137.952H680.455ZM678.407 118.012C677.02 112.001 674.856 106.852 671.699 102.854L663.851 109.05C665.814 111.537 667.49 115.177 668.663 120.26L678.407 118.012ZM671.699 102.854C668.249 98.483 663.593 96.088 658.047 96.088V106.088C660.351 106.088 662.181 106.936 663.851 109.05L671.699 102.854ZM658.047 96.088C652.501 96.088 647.845 98.483 644.395 102.854L652.243 109.05C653.913 106.936 655.743 106.088 658.047 106.088V96.088ZM644.435 102.803C641.244 106.739 639.074 111.874 637.687 117.884L647.431 120.132C648.604 115.048 650.274 111.48 652.203 109.101L644.435 102.803ZM637.687 117.884C636.304 123.876 635.639 130.579 635.639 137.952H645.639C645.639 131.16 646.254 125.234 647.431 120.132L637.687 117.884ZM635.639 137.952C635.639 145.325 636.304 152.028 637.687 158.02L647.431 155.772C646.254 150.67 645.639 144.744 645.639 137.952H635.639ZM637.687 158.02C639.074 164.03 641.244 169.165 644.435 173.101L652.203 166.803C650.274 164.424 648.604 160.856 647.431 155.772L637.687 158.02ZM644.486 173.163C648.003 177.36 652.609 179.688 658.047 179.688V169.688C655.805 169.688 653.926 168.858 652.152 166.741L644.486 173.163Z" fill="#00D1FF" mask="url(#path-8-outside-1_85_2)"/>
<mask id="path-10-outside-2_85_2" maskUnits="userSpaceOnUse" x="493" y="86" width="197" height="103" fill="black">
<rect fill="white" x="493" y="86" width="197" height="103"/>
<path d="M528.2 187.872C525.555 187.872 523.507 186.464 522.056 183.648L494.92 126.432C494.237 124.981 494.152 123.573 494.664 122.208C495.261 120.757 496.371 119.648 497.992 118.88C499.443 118.112 500.893 117.984 502.344 118.496C503.88 119.008 505.032 119.989 505.8 121.44L531.144 176.096H525L550.088 121.44C550.856 119.989 552.008 119.008 553.544 118.496C555.165 117.984 556.787 118.112 558.408 118.88C559.944 119.563 560.968 120.629 561.48 122.08C561.992 123.531 561.907 124.981 561.224 126.432L534.088 183.648C532.808 186.464 530.845 187.872 528.2 187.872ZM597.813 188C596.106 188 594.613 187.36 593.333 186.08C592.053 184.8 591.413 183.264 591.413 181.472V103.392L582.069 107.36C580.618 107.957 579.253 108.256 577.973 108.256C576.096 108.256 574.517 107.659 573.237 106.464C572.042 105.269 571.445 103.733 571.445 101.856C571.445 100.491 571.786 99.2533 572.469 98.144C573.152 97.0347 574.218 96.224 575.669 95.712L595.637 88.544C596.064 88.3733 596.49 88.2453 596.917 88.16C597.344 88.0747 597.728 88.032 598.069 88.032C600.032 88.032 601.568 88.672 602.677 89.952C603.872 91.1467 604.469 92.7253 604.469 94.688V181.472C604.469 183.264 603.829 184.8 602.549 186.08C601.269 187.36 599.69 188 597.813 188ZM658.047 188C651.562 188 646.015 186.037 641.407 182.112C636.884 178.101 633.428 172.384 631.039 164.96C628.65 157.451 627.455 148.448 627.455 137.952C627.455 127.456 628.65 118.496 631.039 111.072C633.428 103.563 636.884 97.8453 641.407 93.92C646.015 89.9093 651.562 87.904 658.047 87.904C664.532 87.904 670.036 89.952 674.559 94.048C679.167 98.0587 682.666 103.819 685.055 111.328C687.444 118.752 688.639 127.627 688.639 137.952C688.639 148.277 687.444 157.195 685.055 164.704C682.666 172.128 679.167 177.888 674.559 181.984C670.036 185.995 664.532 188 658.047 188ZM658.047 174.688C661.972 174.688 665.215 173.109 667.775 169.952C670.335 166.709 672.255 162.315 673.535 156.768C674.815 151.221 675.455 144.949 675.455 137.952C675.455 130.955 674.815 124.683 673.535 119.136C672.255 113.589 670.335 109.195 667.775 105.952C665.215 102.709 661.972 101.088 658.047 101.088C654.122 101.088 650.879 102.709 648.319 105.952C645.759 109.109 643.839 113.461 642.559 119.008C641.279 124.555 640.639 130.869 640.639 137.952C640.639 145.035 641.279 151.349 642.559 156.896C643.839 162.443 645.759 166.795 648.319 169.952C650.964 173.109 654.207 174.688 658.047 174.688Z"/>
</mask>
<path d="M528.2 187.872C525.555 187.872 523.507 186.464 522.056 183.648L494.92 126.432C494.237 124.981 494.152 123.573 494.664 122.208C495.261 120.757 496.371 119.648 497.992 118.88C499.443 118.112 500.893 117.984 502.344 118.496C503.88 119.008 505.032 119.989 505.8 121.44L531.144 176.096H525L550.088 121.44C550.856 119.989 552.008 119.008 553.544 118.496C555.165 117.984 556.787 118.112 558.408 118.88C559.944 119.563 560.968 120.629 561.48 122.08C561.992 123.531 561.907 124.981 561.224 126.432L534.088 183.648C532.808 186.464 530.845 187.872 528.2 187.872ZM597.813 188C596.106 188 594.613 187.36 593.333 186.08C592.053 184.8 591.413 183.264 591.413 181.472V103.392L582.069 107.36C580.618 107.957 579.253 108.256 577.973 108.256C576.096 108.256 574.517 107.659 573.237 106.464C572.042 105.269 571.445 103.733 571.445 101.856C571.445 100.491 571.786 99.2533 572.469 98.144C573.152 97.0347 574.218 96.224 575.669 95.712L595.637 88.544C596.064 88.3733 596.49 88.2453 596.917 88.16C597.344 88.0747 597.728 88.032 598.069 88.032C600.032 88.032 601.568 88.672 602.677 89.952C603.872 91.1467 604.469 92.7253 604.469 94.688V181.472C604.469 183.264 603.829 184.8 602.549 186.08C601.269 187.36 599.69 188 597.813 188ZM658.047 188C651.562 188 646.015 186.037 641.407 182.112C636.884 178.101 633.428 172.384 631.039 164.96C628.65 157.451 627.455 148.448 627.455 137.952C627.455 127.456 628.65 118.496 631.039 111.072C633.428 103.563 636.884 97.8453 641.407 93.92C646.015 89.9093 651.562 87.904 658.047 87.904C664.532 87.904 670.036 89.952 674.559 94.048C679.167 98.0587 682.666 103.819 685.055 111.328C687.444 118.752 688.639 127.627 688.639 137.952C688.639 148.277 687.444 157.195 685.055 164.704C682.666 172.128 679.167 177.888 674.559 181.984C670.036 185.995 664.532 188 658.047 188ZM658.047 174.688C661.972 174.688 665.215 173.109 667.775 169.952C670.335 166.709 672.255 162.315 673.535 156.768C674.815 151.221 675.455 144.949 675.455 137.952C675.455 130.955 674.815 124.683 673.535 119.136C672.255 113.589 670.335 109.195 667.775 105.952C665.215 102.709 661.972 101.088 658.047 101.088C654.122 101.088 650.879 102.709 648.319 105.952C645.759 109.109 643.839 113.461 642.559 119.008C641.279 124.555 640.639 130.869 640.639 137.952C640.639 145.035 641.279 151.349 642.559 156.896C643.839 162.443 645.759 166.795 648.319 169.952C650.964 173.109 654.207 174.688 658.047 174.688Z" fill="white"/>
<path d="M522.056 183.648L521.152 184.077L521.16 184.091L521.167 184.106L522.056 183.648ZM494.92 126.432L494.015 126.858L494.016 126.861L494.92 126.432ZM494.664 122.208L493.739 121.827L493.733 121.842L493.728 121.857L494.664 122.208ZM497.992 118.88L498.42 119.784L498.44 119.774L498.46 119.764L497.992 118.88ZM502.344 118.496L502.011 119.439L502.019 119.442L502.028 119.445L502.344 118.496ZM505.8 121.44L506.707 121.019L506.696 120.995L506.684 120.972L505.8 121.44ZM531.144 176.096V177.096H532.71L532.051 175.675L531.144 176.096ZM525 176.096L524.091 175.679L523.441 177.096H525V176.096ZM550.088 121.44L549.204 120.972L549.191 120.997L549.179 121.023L550.088 121.44ZM553.544 118.496L553.243 117.542L553.235 117.545L553.228 117.547L553.544 118.496ZM558.408 118.88L557.98 119.784L557.991 119.789L558.002 119.794L558.408 118.88ZM561.48 122.08L562.423 121.747L562.423 121.747L561.48 122.08ZM561.224 126.432L562.128 126.861L562.129 126.858L561.224 126.432ZM534.088 183.648L533.184 183.219L533.181 183.227L533.178 183.234L534.088 183.648ZM528.2 186.872C526.011 186.872 524.265 185.753 522.945 183.19L521.167 184.106C522.748 187.175 525.099 188.872 528.2 188.872V186.872ZM522.96 183.219L495.824 126.003L494.016 126.861L521.152 184.077L522.96 183.219ZM495.825 126.006C495.244 124.773 495.193 123.645 495.6 122.559L493.728 121.857C493.111 123.501 493.23 125.19 494.015 126.858L495.825 126.006ZM495.589 122.589C496.078 121.401 496.989 120.462 498.42 119.784L497.564 117.976C495.752 118.834 494.445 120.113 493.739 121.827L495.589 122.589ZM498.46 119.764C499.682 119.117 500.843 119.027 502.011 119.439L502.677 117.553C500.944 116.941 499.203 117.107 497.524 117.996L498.46 119.764ZM502.028 119.445C503.316 119.874 504.267 120.681 504.916 121.908L506.684 120.972C505.797 119.298 504.444 118.142 502.66 117.547L502.028 119.445ZM504.893 121.861L530.237 176.517L532.051 175.675L506.707 121.019L504.893 121.861ZM531.144 175.096H525V177.096H531.144V175.096ZM525.909 176.513L550.997 121.857L549.179 121.023L524.091 175.679L525.909 176.513ZM550.972 121.908C551.621 120.681 552.572 119.874 553.86 119.445L553.228 117.547C551.444 118.142 550.091 119.298 549.204 120.972L550.972 121.908ZM553.845 119.45C555.212 119.018 556.573 119.117 557.98 119.784L558.836 117.976C557.001 117.107 555.119 116.95 553.243 117.542L553.845 119.45ZM558.002 119.794C559.313 120.376 560.126 121.247 560.537 122.413L562.423 121.747C561.811 120.012 560.575 118.749 558.814 117.966L558.002 119.794ZM560.537 122.413C560.957 123.604 560.895 124.782 560.319 126.006L562.129 126.858C562.918 125.18 563.027 123.457 562.423 121.747L560.537 122.413ZM560.32 126.003L533.184 183.219L534.992 184.077L562.128 126.861L560.32 126.003ZM533.178 183.234C532.59 184.527 531.878 185.426 531.073 186.003C530.278 186.574 529.334 186.872 528.2 186.872V188.872C529.711 188.872 531.071 188.466 532.239 187.629C533.397 186.798 534.306 185.585 534.998 184.062L533.178 183.234ZM591.413 103.392H592.413V101.881L591.022 102.472L591.413 103.392ZM582.069 107.36L582.45 108.285L582.46 108.28L582.069 107.36ZM573.237 106.464L572.53 107.171L572.542 107.183L572.555 107.195L573.237 106.464ZM575.669 95.712L576.002 96.655L576.007 96.6532L575.669 95.712ZM595.637 88.544L595.975 89.4852L595.992 89.4791L596.008 89.4725L595.637 88.544ZM602.677 89.952L601.921 90.6069L601.945 90.6339L601.97 90.6591L602.677 89.952ZM602.549 186.08L603.256 186.787L603.256 186.787L602.549 186.08ZM597.813 187C596.389 187 595.145 186.478 594.04 185.373L592.626 186.787C594.081 188.242 595.824 189 597.813 189V187ZM594.04 185.373C592.946 184.278 592.413 182.996 592.413 181.472H590.413C590.413 183.532 591.16 185.322 592.626 186.787L594.04 185.373ZM592.413 181.472V103.392H590.413V181.472H592.413ZM591.022 102.472L581.678 106.44L582.46 108.28L591.804 104.312L591.022 102.472ZM581.688 106.435C580.332 106.994 579.097 107.256 577.973 107.256V109.256C579.409 109.256 580.905 108.921 582.45 108.285L581.688 106.435ZM577.973 107.256C576.329 107.256 575 106.742 573.919 105.733L572.555 107.195C574.034 108.576 575.862 109.256 577.973 109.256V107.256ZM573.944 105.757C572.959 104.771 572.445 103.5 572.445 101.856H570.445C570.445 103.966 571.126 105.767 572.53 107.171L573.944 105.757ZM572.445 101.856C572.445 100.666 572.74 99.6121 573.321 98.6681L571.617 97.6199C570.833 98.8946 570.445 100.315 570.445 101.856H572.445ZM573.321 98.6681C573.863 97.7875 574.726 97.1052 576.002 96.655L575.336 94.769C573.71 95.3428 572.441 96.2818 571.617 97.6199L573.321 98.6681ZM576.007 96.6532L595.975 89.4852L595.299 87.6028L575.331 94.7708L576.007 96.6532ZM596.008 89.4725C596.382 89.3232 596.75 89.2133 597.113 89.1406L596.721 87.1794C596.231 87.2774 595.746 87.4234 595.266 87.6155L596.008 89.4725ZM597.113 89.1406C597.492 89.0648 597.809 89.032 598.069 89.032V87.032C597.647 87.032 597.195 87.0845 596.721 87.1794L597.113 89.1406ZM598.069 89.032C599.793 89.032 601.033 89.5819 601.921 90.6069L603.433 89.2971C602.102 87.7621 600.271 87.032 598.069 87.032V89.032ZM601.97 90.6591C602.947 91.6358 603.469 92.9442 603.469 94.688H605.469C605.469 92.5065 604.797 90.6575 603.384 89.2449L601.97 90.6591ZM603.469 94.688V181.472H605.469V94.688H603.469ZM603.469 181.472C603.469 182.996 602.936 184.278 601.842 185.373L603.256 186.787C604.722 185.322 605.469 183.532 605.469 181.472H603.469ZM601.842 185.373C600.757 186.458 599.436 187 597.813 187V189C599.945 189 601.781 188.262 603.256 186.787L601.842 185.373ZM641.407 182.112L640.744 182.86L640.751 182.867L640.759 182.873L641.407 182.112ZM631.039 164.96L630.086 165.263L630.087 165.266L631.039 164.96ZM631.039 111.072L631.991 111.378L631.992 111.375L631.039 111.072ZM641.407 93.92L642.062 94.6752L642.064 94.6743L641.407 93.92ZM674.559 94.048L673.888 94.7892L673.895 94.7958L673.902 94.8023L674.559 94.048ZM685.055 111.328L684.102 111.631L684.103 111.634L685.055 111.328ZM685.055 164.704L686.007 165.01L686.008 165.007L685.055 164.704ZM674.559 181.984L675.222 182.732L675.223 182.731L674.559 181.984ZM667.775 169.952L668.552 170.582L668.56 170.572L667.775 169.952ZM673.535 156.768L674.509 156.993L674.509 156.993L673.535 156.768ZM673.535 119.136L674.509 118.911L674.509 118.911L673.535 119.136ZM648.319 105.952L649.096 106.582L649.104 106.572L648.319 105.952ZM642.559 119.008L641.585 118.783L642.559 119.008ZM648.319 169.952L647.542 170.582L647.547 170.588L647.552 170.594L648.319 169.952ZM658.047 187C651.781 187 646.469 185.11 642.055 181.351L640.759 182.873C645.561 186.964 651.342 189 658.047 189V187ZM642.07 181.364C637.715 177.502 634.341 171.956 631.991 164.654L630.087 165.266C632.516 172.812 636.053 178.701 640.744 182.86L642.07 181.364ZM631.992 164.657C629.642 157.272 628.455 148.377 628.455 137.952H626.455C626.455 148.519 627.657 157.629 630.086 165.263L631.992 164.657ZM628.455 137.952C628.455 127.526 629.642 118.676 631.991 111.378L630.087 110.766C627.657 118.316 626.455 127.386 626.455 137.952H628.455ZM631.992 111.375C634.343 103.987 637.716 98.4477 642.062 94.6752L640.752 93.1648C636.053 97.243 632.514 103.138 630.086 110.769L631.992 111.375ZM642.064 94.6743C646.478 90.8324 651.787 88.904 658.047 88.904V86.904C651.337 86.904 645.552 88.9863 640.75 93.1657L642.064 94.6743ZM658.047 88.904C664.301 88.904 669.561 90.8708 673.888 94.7892L675.23 93.3068C670.511 89.0331 664.763 86.904 658.047 86.904V88.904ZM673.902 94.8023C678.337 98.6624 681.752 104.247 684.102 111.631L686.008 111.025C683.579 103.391 679.997 97.4549 675.216 93.2937L673.902 94.8023ZM684.103 111.634C686.452 118.933 687.639 127.699 687.639 137.952H689.639C689.639 127.554 688.437 118.571 686.007 111.022L684.103 111.634ZM687.639 137.952C687.639 148.204 686.452 157.015 684.102 164.401L686.008 165.007C688.436 157.375 689.639 148.35 689.639 137.952H687.639ZM684.103 164.398C681.754 171.696 678.338 177.287 673.895 181.237L675.223 182.731C679.996 178.489 683.577 172.56 686.007 165.01L684.103 164.398ZM673.896 181.236C669.57 185.072 664.307 187 658.047 187V189C664.757 189 670.503 186.917 675.222 182.732L673.896 181.236ZM658.047 175.688C662.286 175.688 665.81 173.964 668.552 170.582L666.998 169.322C664.62 172.255 661.659 173.688 658.047 173.688V175.688ZM668.56 170.572C671.239 167.178 673.208 162.632 674.509 156.993L672.561 156.543C671.302 161.997 669.431 166.241 666.99 169.332L668.56 170.572ZM674.509 156.993C675.81 151.358 676.455 145.008 676.455 137.952H674.455C674.455 144.89 673.82 151.085 672.561 156.543L674.509 156.993ZM676.455 137.952C676.455 130.896 675.81 124.546 674.509 118.911L672.561 119.361C673.82 124.819 674.455 131.014 674.455 137.952H676.455ZM674.509 118.911C673.208 113.272 671.239 108.726 668.56 105.332L666.99 106.572C669.431 109.663 671.302 113.907 672.561 119.361L674.509 118.911ZM668.56 105.332C665.822 101.864 662.297 100.088 658.047 100.088V102.088C661.648 102.088 664.608 103.555 666.99 106.572L668.56 105.332ZM658.047 100.088C653.797 100.088 650.272 101.864 647.534 105.332L649.104 106.572C651.486 103.555 654.446 102.088 658.047 102.088V100.088ZM647.542 105.322C644.856 108.635 642.886 113.144 641.585 118.783L643.533 119.233C644.792 113.779 646.662 109.583 649.096 106.582L647.542 105.322ZM641.585 118.783C640.284 124.419 639.639 130.811 639.639 137.952H641.639C641.639 130.927 642.274 124.69 643.533 119.233L641.585 118.783ZM639.639 137.952C639.639 145.093 640.284 151.485 641.585 157.121L643.533 156.671C642.274 151.214 641.639 144.977 641.639 137.952H639.639ZM641.585 157.121C642.886 162.76 644.856 167.269 647.542 170.582L649.096 169.322C646.662 166.321 644.792 162.125 643.533 156.671L641.585 157.121ZM647.552 170.594C650.372 173.96 653.887 175.688 658.047 175.688V173.688C654.527 173.688 651.557 172.259 649.086 169.31L647.552 170.594Z" fill="white" mask="url(#path-10-outside-2_85_2)"/>
</g>
</svg>
