<svg width="853" height="288" viewBox="0 0 853 288" fill="none" xmlns="http://www.w3.org/2000/svg">
<g clip-path="url(#clip0_100_2)">
<path d="M853 0H0V288H853V0Z" fill="#FFB800"/>
<mask id="mask0_100_2" style="mask-type:alpha" maskUnits="userSpaceOnUse" x="0" y="0" width="853" height="288">
<path d="M853 0H0V288H853V0Z" fill="#00D181"/>
</mask>
<g mask="url(#mask0_100_2)">
<path d="M941.938 80.5C944.632 75.8333 951.368 75.8333 954.062 80.5L1058.85 262C1061.55 266.667 1058.18 272.5 1052.79 272.5H843.211C837.822 272.5 834.454 266.667 837.149 262L941.938 80.5Z" fill="#FFCE50"/>
<path d="M462.938 80.5C465.632 75.8333 472.368 75.8333 475.062 80.5L579.851 262C582.546 266.667 579.178 272.5 573.789 272.5H364.211C358.822 272.5 355.454 266.667 358.149 262L462.938 80.5Z" fill="#FFCE50"/>
<path d="M833.062 220.5C830.368 225.167 823.632 225.167 820.938 220.5L716.149 39C713.454 34.3333 716.822 28.5 722.211 28.5L931.789 28.5C937.178 28.5 940.546 34.3333 937.851 39L833.062 220.5Z" fill="#FFCE50"/>
<path d="M354.062 220.5C351.368 225.167 344.632 225.167 341.938 220.5L237.149 39C234.454 34.3333 237.822 28.5 243.211 28.5L452.789 28.5C458.178 28.5 461.546 34.3333 458.851 39L354.062 220.5Z" fill="#FFCE50"/>
</g>
<path d="M699.938 80.5C702.632 75.8333 709.368 75.8333 712.062 80.5L816.851 262C819.546 266.667 816.178 272.5 810.789 272.5H601.211C595.822 272.5 592.454 266.667 595.149 262L699.938 80.5Z" fill="#FFCE50"/>
<path d="M220.938 80.5C223.632 75.8333 230.368 75.8333 233.062 80.5L337.851 262C340.546 266.667 337.178 272.5 331.789 272.5H122.211C116.822 272.5 113.454 266.667 116.149 262L220.938 80.5Z" fill="#FFCE50"/>
<path d="M591.062 220.5C588.368 225.167 581.632 225.167 578.938 220.5L474.149 39C471.454 34.3333 474.822 28.5 480.211 28.5L689.789 28.5C695.178 28.5 698.546 34.3333 695.851 39L591.062 220.5Z" fill="#FFCE50"/>
<path d="M112.062 220.5C109.368 225.167 102.632 225.167 99.9378 220.5L-4.85124 39C-7.54554 34.3333 -4.17767 28.5 1.21093 28.5L210.789 28.5C216.178 28.5 219.546 34.3333 216.851 39L112.062 220.5Z" fill="#FFCE50"/>
<rect width="853" height="288" fill="url(#paint0_linear_100_2)"/>
</g>
<defs>
<linearGradient id="paint0_linear_100_2" x1="845" y1="-9.75867e-05" x2="40" y2="246.5" gradientUnits="userSpaceOnUse">
<stop stop-color="#FFB800" stop-opacity="0"/>
<stop offset="0.99" stop-color="#FFB800"/>
</linearGradient>
<clipPath id="clip0_100_2">
<rect width="853" height="288" fill="white"/>
</clipPath>
</defs>
</svg>
